# This file uses centimeters as units for non-parametric coordinates.

mtllib Puerta_Principal.mtl
g default
v -0.122091 0.021281 6.476129
v 0.047945 0.021281 6.476129
v -0.122091 12.841281 6.476129
v 0.047945 12.841281 6.476129
v -0.122091 12.841281 -0.014370
v 0.047945 12.841281 -0.014370
v -0.122091 0.021281 -0.014370
v 0.047945 0.021281 -0.014370
vt 0.474273 0.000000
vt 0.525727 0.000000
vt 0.525727 1.000000
vt 0.474273 1.000000
vt 0.400471 1.000925
vt 0.400016 0.000927
vt 0.645775 -0.000925
vt 0.646230 0.999073
vt 0.471991 1.000000
vt 0.528009 1.000000
vt 0.528009 0.000000
vt 0.471991 0.000000
vt 0.646183 0.999386
vt 0.645885 -0.000598
vt 0.400047 0.000614
vt 0.400345 1.000598
vt 0.399060 0.000000
vt 0.647262 0.000000
vt 0.647262 1.000000
vt 0.399060 1.000000
vt 0.647284 0.000000
vt 0.398962 0.000000
vt 0.398962 1.000000
vt 0.647284 1.000000
vn 0.000000 0.000000 1.000000
vn 0.000000 0.000000 1.000000
vn 0.000000 0.000000 1.000000
vn 0.000000 0.000000 1.000000
vn 0.000000 1.000000 0.000000
vn 0.000000 1.000000 0.000000
vn 0.000000 1.000000 0.000000
vn 0.000000 1.000000 0.000000
vn 0.000000 0.000000 -1.000000
vn 0.000000 0.000000 -1.000000
vn 0.000000 0.000000 -1.000000
vn 0.000000 0.000000 -1.000000
vn 0.000000 -1.000000 0.000000
vn 0.000000 -1.000000 0.000000
vn 0.000000 -1.000000 0.000000
vn 0.000000 -1.000000 0.000000
vn 1.000000 0.000000 0.000000
vn 1.000000 0.000000 0.000000
vn 1.000000 0.000000 0.000000
vn 1.000000 0.000000 0.000000
vn -1.000000 0.000000 0.000000
vn -1.000000 0.000000 0.000000
vn -1.000000 0.000000 0.000000
vn -1.000000 0.000000 0.000000
s off
g Fachada:pCube1
usemtl Fachada:phong9SG
f 1/1/1 2/2/2 4/3/3 3/4/4
f 3/5/5 4/6/6 6/7/7 5/8/8
f 5/9/9 6/10/10 8/11/11 7/12/12
f 7/13/13 8/14/14 2/15/15 1/16/16
f 2/17/17 8/18/18 6/19/19 4/20/20
f 7/21/21 1/22/22 3/23/23 5/24/24
