# This file uses centimeters as units for non-parametric coordinates.

mtllib Cobweb.mtl
g default
v 28.631670 11.463338 18.896545
v 28.631670 12.103632 18.908677
v 28.631670 12.743926 18.920808
v 28.631670 13.384221 18.932940
v 28.631670 14.024515 18.945072
v 28.631670 14.664809 18.957203
v 28.631670 15.305104 18.969335
v 28.631670 15.945398 18.981467
v 28.631670 16.585692 18.993599
v 28.631670 17.225987 19.005730
v 28.631670 17.866281 19.017862
v 29.116735 11.475203 18.270319
v 29.116735 12.115497 18.282451
v 29.116735 12.755792 18.294582
v 29.116735 13.396086 18.306714
v 29.116735 14.036380 18.318846
v 29.116735 14.676674 18.330978
v 29.116735 15.316969 18.343109
v 29.116735 15.957263 18.355241
v 29.116735 16.597557 18.367373
v 29.116735 17.237852 18.379505
v 29.116735 17.878146 18.391636
v 29.601800 11.487068 17.644093
v 29.601800 12.127362 17.656225
v 29.601800 12.767657 17.668357
v 29.601800 13.407951 17.680488
v 29.601800 14.048245 17.692620
v 29.601800 14.688540 17.704752
v 29.601800 15.328834 17.716883
v 29.601800 15.969128 17.729015
v 29.601800 16.609423 17.741147
v 29.601800 17.249717 17.753279
v 29.601800 17.890011 17.765410
v 30.086866 11.498933 17.017867
v 30.086866 12.139228 17.029999
v 30.086866 12.779522 17.042130
v 30.086866 13.419816 17.054262
v 30.086866 14.060111 17.066394
v 30.086866 14.700405 17.078526
v 30.086866 15.340699 17.090657
v 30.086866 15.980993 17.102789
v 30.086866 16.621288 17.114921
v 30.086866 17.261582 17.127053
v 30.086866 17.901876 17.139184
v 30.571931 11.510799 16.391641
v 30.571931 12.151093 16.403773
v 30.571931 12.791387 16.415905
v 30.571931 13.431682 16.428036
v 30.571931 14.071976 16.440168
v 30.571931 14.712270 16.452300
v 30.571931 15.352564 16.464432
v 30.571931 15.992859 16.476563
v 30.571931 16.633153 16.488695
v 30.571931 17.273447 16.500827
v 30.571931 17.913742 16.512959
v 31.056996 11.522664 15.765415
v 31.056996 12.162958 15.777547
v 31.056996 12.803252 15.789679
v 31.056996 13.443547 15.801810
v 31.056996 14.083841 15.813942
v 31.056996 14.724135 15.826074
v 31.056996 15.364430 15.838206
v 31.056996 16.004724 15.850337
v 31.056996 16.645018 15.862469
v 31.056996 17.285313 15.874601
v 31.056996 17.925607 15.886733
v 31.542061 11.534529 15.139189
v 31.542061 12.174823 15.151321
v 31.542061 12.815117 15.163453
v 31.542061 13.455412 15.175584
v 31.542061 14.095706 15.187716
v 31.542061 14.736000 15.199848
v 31.542061 15.376295 15.211980
v 31.542061 16.016589 15.224111
v 31.542061 16.656883 15.236243
v 31.542061 17.297178 15.248375
v 31.542061 17.937472 15.260507
v 32.027127 11.546394 14.512964
v 32.027127 12.186688 14.525095
v 32.027127 12.826983 14.537227
v 32.027127 13.467277 14.549359
v 32.027127 14.107571 14.561490
v 32.027127 14.747866 14.573622
v 32.027127 15.388160 14.585754
v 32.027127 16.028454 14.597886
v 32.027127 16.668749 14.610017
v 32.027127 17.309043 14.622149
v 32.027127 17.949337 14.634281
v 32.512192 11.558259 13.886737
v 32.512192 12.198554 13.898869
v 32.512192 12.838848 13.911001
v 32.512192 13.479142 13.923133
v 32.512192 14.119437 13.935264
v 32.512192 14.759731 13.947396
v 32.512192 15.400025 13.959528
v 32.512192 16.040319 13.971660
v 32.512192 16.680614 13.983791
v 32.512192 17.320908 13.995923
v 32.512192 17.961202 14.008055
v 32.997257 11.570124 13.260511
v 32.997257 12.210419 13.272643
v 32.997257 12.850713 13.284775
v 32.997257 13.491007 13.296907
v 32.997257 14.131302 13.309038
v 32.997257 14.771596 13.321170
v 32.997257 15.411890 13.333302
v 32.997257 16.052184 13.345434
v 32.997257 16.692479 13.357565
v 32.997257 17.332773 13.369697
v 32.997257 17.973067 13.381829
v 33.482322 11.581990 12.634286
v 33.482322 12.222284 12.646418
v 33.482322 12.862578 12.658549
v 33.482322 13.502873 12.670681
v 33.482322 14.143167 12.682813
v 33.482322 14.783461 12.694944
v 33.482322 15.423756 12.707076
v 33.482322 16.064050 12.719208
v 33.482322 16.704344 12.731340
v 33.482322 17.344639 12.743471
v 33.482322 17.984933 12.755603
vt 0.000000 0.000000
vt 0.100000 0.000000
vt 0.200000 0.000000
vt 0.300000 0.000000
vt 0.400000 0.000000
vt 0.500000 0.000000
vt 0.600000 0.000000
vt 0.700000 0.000000
vt 0.800000 0.000000
vt 0.900000 0.000000
vt 1.000000 0.000000
vt 0.000000 0.100000
vt 0.100000 0.100000
vt 0.200000 0.100000
vt 0.300000 0.100000
vt 0.400000 0.100000
vt 0.500000 0.100000
vt 0.600000 0.100000
vt 0.700000 0.100000
vt 0.800000 0.100000
vt 0.900000 0.100000
vt 1.000000 0.100000
vt 0.000000 0.200000
vt 0.100000 0.200000
vt 0.200000 0.200000
vt 0.300000 0.200000
vt 0.400000 0.200000
vt 0.500000 0.200000
vt 0.600000 0.200000
vt 0.700000 0.200000
vt 0.800000 0.200000
vt 0.900000 0.200000
vt 1.000000 0.200000
vt 0.000000 0.300000
vt 0.100000 0.300000
vt 0.200000 0.300000
vt 0.300000 0.300000
vt 0.400000 0.300000
vt 0.500000 0.300000
vt 0.600000 0.300000
vt 0.700000 0.300000
vt 0.800000 0.300000
vt 0.900000 0.300000
vt 1.000000 0.300000
vt 0.000000 0.400000
vt 0.100000 0.400000
vt 0.200000 0.400000
vt 0.300000 0.400000
vt 0.400000 0.400000
vt 0.500000 0.400000
vt 0.600000 0.400000
vt 0.700000 0.400000
vt 0.800000 0.400000
vt 0.900000 0.400000
vt 1.000000 0.400000
vt 0.000000 0.500000
vt 0.100000 0.500000
vt 0.200000 0.500000
vt 0.300000 0.500000
vt 0.400000 0.500000
vt 0.500000 0.500000
vt 0.600000 0.500000
vt 0.700000 0.500000
vt 0.800000 0.500000
vt 0.900000 0.500000
vt 1.000000 0.500000
vt 0.000000 0.600000
vt 0.100000 0.600000
vt 0.200000 0.600000
vt 0.300000 0.600000
vt 0.400000 0.600000
vt 0.500000 0.600000
vt 0.600000 0.600000
vt 0.700000 0.600000
vt 0.800000 0.600000
vt 0.900000 0.600000
vt 1.000000 0.600000
vt 0.000000 0.700000
vt 0.100000 0.700000
vt 0.200000 0.700000
vt 0.300000 0.700000
vt 0.400000 0.700000
vt 0.500000 0.700000
vt 0.600000 0.700000
vt 0.700000 0.700000
vt 0.800000 0.700000
vt 0.900000 0.700000
vt 1.000000 0.700000
vt 0.000000 0.800000
vt 0.100000 0.800000
vt 0.200000 0.800000
vt 0.300000 0.800000
vt 0.400000 0.800000
vt 0.500000 0.800000
vt 0.600000 0.800000
vt 0.700000 0.800000
vt 0.800000 0.800000
vt 0.900000 0.800000
vt 1.000000 0.800000
vt 0.000000 0.900000
vt 0.100000 0.900000
vt 0.200000 0.900000
vt 0.300000 0.900000
vt 0.400000 0.900000
vt 0.500000 0.900000
vt 0.600000 0.900000
vt 0.700000 0.900000
vt 0.800000 0.900000
vt 0.900000 0.900000
vt 1.000000 0.900000
vt 0.000000 1.000000
vt 0.100000 1.000000
vt 0.200000 1.000000
vt 0.300000 1.000000
vt 0.400000 1.000000
vt 0.500000 1.000000
vt 0.600000 1.000000
vt 0.700000 1.000000
vt 0.800000 1.000000
vt 0.900000 1.000000
vt 1.000000 1.000000
vn -0.790627 0.011599 -0.612188
vn -0.790627 0.011599 -0.612188
vn -0.790627 0.011599 -0.612188
vn -0.790627 0.011599 -0.612188
vn -0.790627 0.011599 -0.612188
vn -0.790627 0.011599 -0.612188
vn -0.790627 0.011599 -0.612188
vn -0.790627 0.011599 -0.612188
vn -0.790627 0.011599 -0.612188
vn -0.790627 0.011599 -0.612188
vn -0.790627 0.011599 -0.612188
vn -0.790627 0.011599 -0.612188
vn -0.790627 0.011599 -0.612188
vn -0.790627 0.011599 -0.612188
vn -0.790627 0.011599 -0.612188
vn -0.790627 0.011599 -0.612188
vn -0.790627 0.011599 -0.612188
vn -0.790627 0.011599 -0.612188
vn -0.790627 0.011599 -0.612188
vn -0.790627 0.011599 -0.612188
vn -0.790627 0.011599 -0.612188
vn -0.790627 0.011599 -0.612188
vn -0.790627 0.011599 -0.612188
vn -0.790627 0.011599 -0.612188
vn -0.790627 0.011599 -0.612188
vn -0.790627 0.011599 -0.612188
vn -0.790627 0.011599 -0.612188
vn -0.790627 0.011599 -0.612188
vn -0.790627 0.011599 -0.612188
vn -0.790627 0.011599 -0.612188
vn -0.790627 0.011599 -0.612188
vn -0.790627 0.011599 -0.612188
vn -0.790627 0.011599 -0.612188
vn -0.790627 0.011599 -0.612188
vn -0.790627 0.011599 -0.612188
vn -0.790627 0.011599 -0.612188
vn -0.790627 0.011599 -0.612188
vn -0.790627 0.011599 -0.612188
vn -0.790627 0.011599 -0.612188
vn -0.790627 0.011599 -0.612188
vn -0.790627 0.011599 -0.612188
vn -0.790627 0.011599 -0.612188
vn -0.790627 0.011599 -0.612188
vn -0.790627 0.011599 -0.612188
vn -0.790627 0.011599 -0.612188
vn -0.790627 0.011599 -0.612188
vn -0.790627 0.011599 -0.612188
vn -0.790627 0.011599 -0.612188
vn -0.790627 0.011599 -0.612188
vn -0.790627 0.011599 -0.612188
vn -0.790627 0.011599 -0.612188
vn -0.790627 0.011599 -0.612188
vn -0.790627 0.011599 -0.612188
vn -0.790627 0.011599 -0.612188
vn -0.790627 0.011599 -0.612188
vn -0.790627 0.011599 -0.612188
vn -0.790627 0.011599 -0.612188
vn -0.790627 0.011599 -0.612188
vn -0.790627 0.011599 -0.612188
vn -0.790627 0.011599 -0.612188
vn -0.790627 0.011599 -0.612188
vn -0.790627 0.011599 -0.612188
vn -0.790627 0.011599 -0.612188
vn -0.790627 0.011599 -0.612188
vn -0.790627 0.011599 -0.612188
vn -0.790627 0.011599 -0.612188
vn -0.790627 0.011599 -0.612188
vn -0.790627 0.011599 -0.612188
vn -0.790627 0.011599 -0.612188
vn -0.790627 0.011599 -0.612188
vn -0.790627 0.011599 -0.612188
vn -0.790627 0.011599 -0.612188
vn -0.790627 0.011599 -0.612188
vn -0.790627 0.011599 -0.612188
vn -0.790627 0.011599 -0.612188
vn -0.790627 0.011599 -0.612188
vn -0.790627 0.011599 -0.612188
vn -0.790627 0.011599 -0.612188
vn -0.790627 0.011599 -0.612188
vn -0.790627 0.011599 -0.612188
vn -0.790627 0.011599 -0.612188
vn -0.790627 0.011599 -0.612188
vn -0.790627 0.011599 -0.612188
vn -0.790627 0.011599 -0.612188
vn -0.790627 0.011599 -0.612188
vn -0.790627 0.011599 -0.612188
vn -0.790627 0.011599 -0.612188
vn -0.790627 0.011599 -0.612188
vn -0.790627 0.011599 -0.612188
vn -0.790627 0.011599 -0.612188
vn -0.790627 0.011599 -0.612188
vn -0.790627 0.011599 -0.612188
vn -0.790627 0.011599 -0.612188
vn -0.790627 0.011599 -0.612188
vn -0.790627 0.011599 -0.612188
vn -0.790627 0.011599 -0.612188
vn -0.790627 0.011599 -0.612188
vn -0.790627 0.011599 -0.612188
vn -0.790627 0.011599 -0.612188
vn -0.790627 0.011599 -0.612188
vn -0.790627 0.011599 -0.612188
vn -0.790627 0.011599 -0.612188
vn -0.790627 0.011599 -0.612188
vn -0.790627 0.011599 -0.612188
vn -0.790627 0.011599 -0.612188
vn -0.790627 0.011599 -0.612188
vn -0.790627 0.011599 -0.612188
vn -0.790627 0.011599 -0.612188
vn -0.790627 0.011599 -0.612188
vn -0.790627 0.011599 -0.612188
vn -0.790627 0.011599 -0.612188
vn -0.790627 0.011599 -0.612188
vn -0.790627 0.011599 -0.612188
vn -0.790627 0.011599 -0.612188
vn -0.790627 0.011599 -0.612188
vn -0.790627 0.011599 -0.612188
vn -0.790627 0.011599 -0.612188
vn -0.790627 0.011599 -0.612188
vn -0.790627 0.011599 -0.612188
vn -0.790627 0.011599 -0.612188
vn -0.790627 0.011599 -0.612188
s 1
g pPlane1
usemtl phong3SG
f 1/1/1 2/2/2 13/13/3 12/12/4
f 2/2/2 3/3/5 14/14/6 13/13/3
f 3/3/5 4/4/7 15/15/8 14/14/6
f 4/4/7 5/5/9 16/16/10 15/15/8
f 5/5/9 6/6/11 17/17/12 16/16/10
f 6/6/11 7/7/13 18/18/14 17/17/12
f 7/7/13 8/8/15 19/19/16 18/18/14
f 8/8/15 9/9/17 20/20/18 19/19/16
f 9/9/17 10/10/19 21/21/20 20/20/18
f 10/10/19 11/11/21 22/22/22 21/21/20
f 12/12/4 13/13/3 24/24/23 23/23/24
f 13/13/3 14/14/6 25/25/25 24/24/23
f 14/14/6 15/15/8 26/26/26 25/25/25
f 15/15/8 16/16/10 27/27/27 26/26/26
f 16/16/10 17/17/12 28/28/28 27/27/27
f 17/17/12 18/18/14 29/29/29 28/28/28
f 18/18/14 19/19/16 30/30/30 29/29/29
f 19/19/16 20/20/18 31/31/31 30/30/30
f 20/20/18 21/21/20 32/32/32 31/31/31
f 21/21/20 22/22/22 33/33/33 32/32/32
f 23/23/24 24/24/23 35/35/34 34/34/35
f 24/24/23 25/25/25 36/36/36 35/35/34
f 25/25/25 26/26/26 37/37/37 36/36/36
f 26/26/26 27/27/27 38/38/38 37/37/37
f 27/27/27 28/28/28 39/39/39 38/38/38
f 28/28/28 29/29/29 40/40/40 39/39/39
f 29/29/29 30/30/30 41/41/41 40/40/40
f 30/30/30 31/31/31 42/42/42 41/41/41
f 31/31/31 32/32/32 43/43/43 42/42/42
f 32/32/32 33/33/33 44/44/44 43/43/43
f 34/34/35 35/35/34 46/46/45 45/45/46
f 35/35/34 36/36/36 47/47/47 46/46/45
f 36/36/36 37/37/37 48/48/48 47/47/47
f 37/37/37 38/38/38 49/49/49 48/48/48
f 38/38/38 39/39/39 50/50/50 49/49/49
f 39/39/39 40/40/40 51/51/51 50/50/50
f 40/40/40 41/41/41 52/52/52 51/51/51
f 41/41/41 42/42/42 53/53/53 52/52/52
f 42/42/42 43/43/43 54/54/54 53/53/53
f 43/43/43 44/44/44 55/55/55 54/54/54
f 45/45/46 46/46/45 57/57/56 56/56/57
f 46/46/45 47/47/47 58/58/58 57/57/56
f 47/47/47 48/48/48 59/59/59 58/58/58
f 48/48/48 49/49/49 60/60/60 59/59/59
f 49/49/49 50/50/50 61/61/61 60/60/60
f 50/50/50 51/51/51 62/62/62 61/61/61
f 51/51/51 52/52/52 63/63/63 62/62/62
f 52/52/52 53/53/53 64/64/64 63/63/63
f 53/53/53 54/54/54 65/65/65 64/64/64
f 54/54/54 55/55/55 66/66/66 65/65/65
f 56/56/57 57/57/56 68/68/67 67/67/68
f 57/57/56 58/58/58 69/69/69 68/68/67
f 58/58/58 59/59/59 70/70/70 69/69/69
f 59/59/59 60/60/60 71/71/71 70/70/70
f 60/60/60 61/61/61 72/72/72 71/71/71
f 61/61/61 62/62/62 73/73/73 72/72/72
f 62/62/62 63/63/63 74/74/74 73/73/73
f 63/63/63 64/64/64 75/75/75 74/74/74
f 64/64/64 65/65/65 76/76/76 75/75/75
f 65/65/65 66/66/66 77/77/77 76/76/76
f 67/67/68 68/68/67 79/79/78 78/78/79
f 68/68/67 69/69/69 80/80/80 79/79/78
f 69/69/69 70/70/70 81/81/81 80/80/80
f 70/70/70 71/71/71 82/82/82 81/81/81
f 71/71/71 72/72/72 83/83/83 82/82/82
f 72/72/72 73/73/73 84/84/84 83/83/83
f 73/73/73 74/74/74 85/85/85 84/84/84
f 74/74/74 75/75/75 86/86/86 85/85/85
f 75/75/75 76/76/76 87/87/87 86/86/86
f 76/76/76 77/77/77 88/88/88 87/87/87
f 78/78/79 79/79/78 90/90/89 89/89/90
f 79/79/78 80/80/80 91/91/91 90/90/89
f 80/80/80 81/81/81 92/92/92 91/91/91
f 81/81/81 82/82/82 93/93/93 92/92/92
f 82/82/82 83/83/83 94/94/94 93/93/93
f 83/83/83 84/84/84 95/95/95 94/94/94
f 84/84/84 85/85/85 96/96/96 95/95/95
f 85/85/85 86/86/86 97/97/97 96/96/96
f 86/86/86 87/87/87 98/98/98 97/97/97
f 87/87/87 88/88/88 99/99/99 98/98/98
f 89/89/90 90/90/89 101/101/100 100/100/101
f 90/90/89 91/91/91 102/102/102 101/101/100
f 91/91/91 92/92/92 103/103/103 102/102/102
f 92/92/92 93/93/93 104/104/104 103/103/103
f 93/93/93 94/94/94 105/105/105 104/104/104
f 94/94/94 95/95/95 106/106/106 105/105/105
f 95/95/95 96/96/96 107/107/107 106/106/106
f 96/96/96 97/97/97 108/108/108 107/107/107
f 97/97/97 98/98/98 109/109/109 108/108/108
f 98/98/98 99/99/99 110/110/110 109/109/109
f 100/100/101 101/101/100 112/112/111 111/111/112
f 101/101/100 102/102/102 113/113/113 112/112/111
f 102/102/102 103/103/103 114/114/114 113/113/113
f 103/103/103 104/104/104 115/115/115 114/114/114
f 104/104/104 105/105/105 116/116/116 115/115/115
f 105/105/105 106/106/106 117/117/117 116/116/116
f 106/106/106 107/107/107 118/118/118 117/117/117
f 107/107/107 108/108/108 119/119/119 118/118/118
f 108/108/108 109/109/109 120/120/120 119/119/119
f 109/109/109 110/110/110 121/121/121 120/120/120
