# This file uses centimeters as units for non-parametric coordinates.

mtllib Sotano.mtl
g default
v 33.507950 -0.287548 -16.930141
v -7.376899 -0.287548 -16.930141
v 33.507950 17.974243 -16.930141
v -7.376899 17.974243 -16.930141
v 33.507950 17.974243 19.257948
v -7.376899 17.974243 19.257948
v 33.507950 -0.287548 19.257948
v -7.376899 -0.287548 19.257948
v 4.543485 -0.287548 19.257948
v -1.957452 -0.287548 19.257948
v -7.376899 -0.287548 19.223997
v -1.957452 -0.287548 19.223997
v -7.376899 17.974243 19.223997
v -2.058744 0.053775 19.257948
v -2.068765 0.087537 19.257948
v 3.113589 9.805743 19.257948
v 4.766906 8.573620 19.257948
v 4.547637 0.061140 19.257948
v -1.957182 0.053891 19.257948
v -2.064510 0.073197 19.223995
v -1.989567 9.810830 19.257948
v 4.764931 9.804096 19.257948
v 4.780578 0.061398 19.257948
v 3.066660 0.059489 19.257950
v -2.646410 9.795372 19.257950
v -3.048003 3.387259 19.257948
v -3.042391 3.368351 19.230246
v -3.041123 3.364071 19.223995
v -3.045159 0.006605 19.223995
v -2.047782 0.016838 19.223995
v -2.045264 0.008348 19.253428
v -2.044876 0.007044 19.257948
v -1.957217 0.007944 19.257948
v -1.225374 0.015453 19.257948
v 3.047291 9.805809 19.257948
v -3.040310 9.786096 19.257948
vt -0.998504 -0.290828
vt 1.998504 -0.290828
vt -0.998504 1.290828
vt 1.998504 1.290828
vt -0.290828 -0.290828
vt 1.290828 -0.290828
vt -0.290828 1.290828
vt 1.290828 1.290828
vt 2.005580 1.290828
vt -1.005580 1.290828
vt 2.005580 -0.290828
vt 0.105950 0.016108
vt 0.130345 0.016668
vt 0.129936 0.019754
vt -0.127646 -0.290828
vt -0.127339 -0.260628
vt 0.291662 0.019094
vt 1.000000 0.000000
vt 0.297359 0.019108
vt -0.111190 0.476639
vt -0.110185 -0.260605
vt -0.111338 0.583211
vt -0.232959 0.583353
vt -0.608806 0.583795
vt -0.237840 0.583360
vt -1.002838 2.002837
vt 1.126503 2.002837
vt -1.002838 -1.002837
vt 2.002838 2.002837
vt 2.002838 -1.002837
vt 1.604423 2.002837
vt -1.006982 -0.295302
vt 2.006982 -0.295302
vt -1.006982 1.295302
vt 2.006982 1.295302
vt 1.999865 -0.295302
vt -0.999865 -0.295302
vt 1.999865 1.295302
vt -0.999865 1.295302
vt 0.150460 0.016592
vt 0.255438 0.019003
vt 0.132561 0.018697
vt 0.132560 0.016181
vt 1.000000 0.000000
vt 0.867446 0.000000
vt 1.000000 0.000000
vt 0.867446 0.000000
vt 0.869594 0.016203
vt 0.869584 0.016132
vt 0.869924 0.018691
vt 0.869655 0.016668
vt 0.870064 0.019754
vt 1.000000 1.000000
vt 1.000000 1.000000
vt 0.130416 0.016132
vt 0.130076 0.018691
vt 0.870169 0.020539
vt -0.657180 0.582455
vt -0.686759 0.027447
vt -0.686193 0.581651
vt 0.893983 0.200194
vt 0.894120 0.201229
vt 0.893951 0.199960
vt -1.005580 -0.290828
vt -0.686548 -0.265350
vt -0.686250 0.025440
vt -1.005580 1.290828
vt -0.606439 -0.290828
vt -0.613091 -0.264465
vt 0.132554 0.000000
vt -0.552521 -0.264585
vt -0.606421 -0.265235
vt -0.606439 -0.290828
vt -0.236416 -0.260770
vn 0.000000 0.000000 -1.000000
vn 0.000000 0.000000 -1.000000
vn 0.000000 0.000000 -1.000000
vn 0.000000 0.000000 -1.000000
vn 0.000000 0.000000 -1.000000
vn 0.000000 0.000000 -1.000000
vn 0.000000 1.000000 0.000000
vn 0.000000 1.000000 0.000000
vn 0.000000 1.000000 0.000000
vn 0.000000 1.000000 0.000000
vn 0.000000 1.000000 0.000000
vn 0.000000 1.000000 0.000000
vn 0.000000 0.000000 1.000000
vn 0.000000 0.000000 1.000000
vn 0.000000 0.000000 1.000000
vn 0.000001 0.000000 1.000000
vn 0.000000 0.000005 1.000000
vn 0.000000 0.000000 1.000000
vn 0.000000 0.000000 1.000000
vn 0.000000 0.000000 1.000000
vn 0.000000 0.000000 1.000000
vn 0.000000 0.000000 1.000000
vn 0.000000 0.000000 1.000000
vn 0.000000 0.000000 1.000000
vn 0.000000 0.000000 1.000000
vn 0.000000 0.000000 1.000000
vn 0.000000 0.000000 1.000000
vn 0.000000 0.000000 1.000000
vn 0.000000 0.000000 1.000000
vn 0.000000 0.000000 1.000000
vn 0.000000 0.000000 1.000000
vn 0.000000 0.000000 1.000000
vn 0.000000 0.000000 1.000000
vn 0.000000 0.000000 1.000000
vn 0.000000 0.000000 1.000000
vn 0.000000 0.000000 1.000000
vn 0.000000 0.000000 1.000000
vn 0.000000 0.000000 1.000000
vn 0.000000 0.000000 1.000000
vn 0.000000 0.000000 1.000000
vn 0.000000 -1.000000 0.000000
vn 0.000000 -1.000000 0.000000
vn 0.000000 -1.000000 0.000000
vn 0.000000 -1.000000 0.000000
vn 0.000000 -1.000000 0.000000
vn 0.000000 -1.000000 0.000000
vn 0.000000 -1.000000 0.000000
vn 0.000000 -1.000000 0.000000
vn 0.000000 -1.000000 0.000000
vn 0.000000 -1.000000 0.000000
vn 0.000000 -1.000000 0.000000
vn 0.000000 -1.000000 0.000000
vn -1.000000 0.000000 0.000000
vn -1.000000 0.000000 0.000000
vn -1.000000 0.000000 0.000000
vn -1.000000 0.000000 0.000000
vn -1.000000 0.000000 0.000000
vn -1.000000 0.000000 0.000000
vn 1.000000 0.000000 0.000000
vn 1.000000 0.000000 0.000000
vn 1.000000 0.000000 0.000000
vn 1.000000 0.000000 0.000000
vn 1.000000 0.000000 0.000000
vn 1.000000 0.000000 0.000000
vn 0.000000 -0.000001 1.000000
vn 0.000000 -0.000004 1.000000
vn 0.000000 -0.000001 1.000000
vn 0.000000 0.000000 1.000000
vn 0.000000 -0.000001 1.000000
vn 0.000000 -0.000001 1.000000
vn 0.000000 1.000000 0.000000
vn 0.000000 1.000000 0.000000
vn 0.000000 0.000000 1.000000
vn 0.000000 0.000000 1.000000
vn 0.000000 1.000000 0.000000
vn 0.000000 0.000000 1.000000
vn -0.958673 -0.284511 -0.000009
vn -0.958674 -0.284507 0.000002
vn -0.958667 -0.284532 0.000007
vn -0.958671 -0.284517 -0.000015
vn -0.958673 -0.284511 -0.000009
vn -0.958667 -0.284532 0.000007
vn -0.958667 -0.284532 0.000010
vn 1.000000 0.000000 0.000000
vn 1.000000 0.000000 0.000000
vn 0.000000 0.000000 1.000000
vn 0.000000 0.000000 1.000000
vn 1.000000 0.000000 0.000000
vn 0.000000 0.000000 1.000000
vn 0.000005 0.000000 1.000000
vn 0.000004 0.000000 1.000000
vn 0.000015 0.000000 1.000000
vn 0.000015 0.000000 1.000000
vn -0.958667 -0.284532 0.000007
vn -0.958666 -0.284533 0.000036
vn -0.958667 -0.284532 0.000010
vn 0.000006 0.000001 1.000000
vn 0.000000 0.000000 1.000000
vn 0.000000 0.000000 1.000000
vn -0.000001 0.000000 1.000000
vn -0.000001 0.000000 1.000000
vn -0.000001 0.000000 1.000000
vn 0.000000 0.000000 1.000000
vn -0.958677 -0.284496 -0.000017
vn -0.958683 -0.284476 -0.000023
vn -0.958676 -0.284502 -0.000016
vn 0.000000 0.000000 1.000000
vn -0.958676 -0.284502 -0.000016
vn -0.958677 -0.284496 -0.000017
vn -0.958676 -0.284502 -0.000016
vn 0.000000 0.000000 1.000000
vn 0.000001 0.000000 1.000000
vn 0.000001 -0.000000 1.000000
vn 0.000000 0.000000 1.000000
vn 0.000000 0.000000 1.000000
vn 0.000000 0.000005 1.000000
vn 0.000001 0.000000 1.000000
vn 0.000000 0.000000 1.000000
vn 0.000000 0.000000 1.000000
vn -0.958673 -0.284511 -0.000009
vn -0.958671 -0.284517 -0.000015
vn -0.958675 -0.284505 0.000002
vn -0.958674 -0.284507 0.000002
vn -0.958673 -0.284511 -0.000009
vn 0.000000 0.000000 1.000000
vn 0.000000 0.000000 1.000000
vn 0.000004 0.000000 1.000000
vn 0.000005 0.000000 1.000000
vn 0.000000 -0.000004 1.000000
vn 0.000000 -0.000001 1.000000
vn 0.000000 0.000000 1.000000
vn 0.000000 0.000000 1.000000
vn 0.000000 -0.000004 1.000000
vn 0.000000 -0.000004 1.000000
vn 0.000000 -0.000001 1.000000
vn 0.000000 -0.000004 1.000000
vn 0.000000 0.000000 1.000000
vn 0.000000 0.000000 1.000000
vn 0.000000 0.000000 1.000000
vn 0.000000 0.000000 1.000000
vn 0.000000 0.000000 1.000000
vn 0.000000 0.000000 1.000000
vn 0.000000 0.000000 1.000000
s off
g Sotano:pCube1
usemtl Sotano:phong2SG
f 1/1/1 2/2/2 3/3/3
f 3/3/4 2/2/5 4/4/6
usemtl Sotano:phong3SG
f 3/5/7 4/6/8 5/7/9
f 5/7/10 4/6/11 6/8/12
usemtl Sotano:phong2SG
f 5/9/13 6/10/14 7/11/15
f 29/12/16 30/13/17 20/14/18
f 9/15/19 7/11/20 18/16/21
f 18/17/22 7/18/23 23/19/24
f 7/11/25 17/20/26 23/21/27
f 17/20/28 7/11/29 22/22/30
f 7/11/31 6/10/32 22/22/33
f 6/10/34 16/23/35 22/22/36
f 6/10/37 21/24/38 35/25/39 16/23/40
usemtl Sotano:phong4SG
f 7/26/41 9/27/42 1/28/43
f 8/29/44 2/30/45 10/31/46
f 10/31/47 2/30/48 9/27/49
f 9/27/50 2/30/51 1/28/52
usemtl Sotano:phong2SG
f 2/32/53 8/33/54 4/34/55
f 4/34/56 8/33/57 6/35/58
f 7/36/59 1/37/60 5/38/61
f 5/38/62 1/37/63 3/39/64
f 34/40/65 24/41/66 19/42/67
f 33/43/68 34/40/69 19/42/70
f 8/44/71 10/45/72 11/46/73
f 11/46/74 10/45/75 12/47/76
f 31/48/77 32/49/78 14/50/79
f 30/51/80 31/48/81 14/50/82 20/52/83
f 6/53/84 8/44/85 13/54/86
f 13/54/87 8/44/88 11/46/89
f 32/55/90 33/43/91 19/42/92 14/56/93
f 14/50/94 15/57/95 20/52/96
f 25/58/97 21/24/98 6/10/99
f 26/59/100 36/60/101 25/58/102 6/10/103
f 27/61/104 26/62/105 6/53/106
f 13/54/107 28/63/108 27/61/109 6/53/110
f 11/64/111 29/65/112 28/66/113 13/67/114
f 12/68/115 30/69/116 29/65/117 11/64/118
f 12/47/119 31/48/120 30/51/121
f 10/45/122 32/49/123 31/48/124 12/47/125
f 10/70/126 33/43/127 32/55/128
f 9/15/129 34/71/130 33/72/131 10/73/132
f 18/16/133 24/74/134 34/71/135 9/15/136
f 35/25/137 24/74/138 18/16/139 23/21/140 17/20/141 22/22/142 16/23/143
