# This file uses centimeters as units for non-parametric coordinates.

mtllib Escalera.mtl
g default
v -0.125186 1.632722 -0.579039
v 2.843392 1.632722 -0.579039
v -0.125186 1.790022 -0.579039
v 2.843392 1.790022 -0.579039
v -0.125186 1.790022 -2.647247
v 2.843392 1.790022 -2.647247
v -0.125186 1.632722 -2.647247
v 2.843392 1.632722 -2.647247
v -0.272430 1.632722 0.134457
v 2.990636 1.632722 0.134457
v -0.272430 1.790022 0.134457
v 2.990636 1.790022 0.134457
v -0.272430 1.790022 -0.589777
v 2.990636 1.790022 -0.589777
v -0.272430 1.632722 -0.589777
v 2.990636 1.632722 -0.589777
v -0.105605 0.070945 0.574328
v 0.132883 0.070945 0.574328
v -0.105605 1.634361 -0.151767
v 0.132883 1.634361 -0.151767
v -0.105605 1.634361 -2.647806
v 0.132883 1.634361 -2.647806
v -0.105605 0.070945 -2.647806
v 0.132883 0.070945 -2.647806
v 0.129659 0.128912 0.124883
v 2.615034 0.128912 0.124883
v 0.129659 0.423174 0.124883
v 2.615034 0.423174 0.124883
v 0.129659 0.423174 -0.003661
v 2.615034 0.423174 -0.003661
v 0.129659 0.128912 -0.003661
v 2.615034 0.128912 -0.003661
v 2.589308 1.786501 -0.537519
v 2.827797 1.786501 -0.537519
v 2.589308 3.349917 -1.013035
v 2.827797 3.349917 -1.013035
v 2.589308 3.349917 -2.647682
v 2.827797 3.349917 -2.647682
v 2.589308 1.786501 -2.647682
v 2.827797 1.786501 -2.647682
v 2.588811 0.070945 0.574328
v 2.827300 0.070945 0.574328
v 2.588811 1.634361 -0.151767
v 2.827300 1.634361 -0.151767
v 2.588811 1.634361 -2.647806
v 2.827300 1.634361 -2.647806
v 2.588811 0.070945 -2.647806
v 2.827300 0.070945 -2.647806
v -0.105605 1.786501 -0.537519
v 0.132883 1.786501 -0.537519
v -0.105605 3.349917 -1.013035
v 0.132883 3.349917 -1.013035
v -0.105605 3.349917 -2.647682
v 0.132883 3.349917 -2.647682
v -0.105605 1.786501 -2.647682
v 0.132883 1.786501 -2.647682
v -0.272033 3.313972 -0.823379
v 2.975935 3.313972 -0.823379
v -0.272033 3.471271 -0.823379
v 2.975935 3.471271 -0.823379
v -0.272033 3.471271 -2.642355
v 2.975935 3.471271 -2.642355
v -0.272033 3.313972 -2.642355
v 2.975935 3.313972 -2.642355
v 2.592683 1.632722 -0.579039
v 2.592686 1.632722 -2.647247
v 2.592686 1.790022 -2.647247
v 2.592686 1.790022 -0.579039
v 0.133931 1.632722 -0.579039
v 0.133931 1.632722 -2.647247
v 0.133931 1.790022 -2.647247
v 0.133931 1.790022 -0.579039
vt 0.603887 0.250000
vt 0.603887 0.000000
vt 0.625000 0.000000
vt 0.625000 0.250000
vt 0.878044 1.000000
vt 0.878044 0.256496
vt 0.954875 0.256496
vt 0.954875 1.000000
vt 0.875243 0.523472
vt 0.875243 0.719883
vt 0.951506 0.719883
vt 0.951506 0.523472
vt 0.878043 0.256496
vt 0.878044 1.000000
vt 0.954875 1.000000
vt 0.954875 0.256496
vt 0.236389 1.002052
vt 0.241431 -0.001682
vt 0.379549 -0.001478
vt 0.374507 1.002256
vt 0.369832 0.989928
vt 0.369388 0.006855
vt 0.233735 0.010072
vt 0.234179 0.993145
vt -0.008716 0.529683
vt 1.008716 0.529683
vt 1.008716 0.718903
vt -0.008716 0.718903
vt 0.000000 0.000000
vt 1.000000 0.000000
vt 1.000000 0.260356
vt 0.000000 0.260356
vt 0.000000 1.000000
vt 1.000000 1.000000
vt 1.000000 0.000000
vt 0.000000 0.000000
vt 0.000000 0.260356
vt 1.000000 0.260356
vt 1.000000 0.000000
vt 0.000000 0.000000
vt 0.235122 1.001050
vt 0.235099 0.007201
vt 0.376240 -0.001050
vt 0.376264 0.992799
vt 0.236227 0.010917
vt 0.237183 1.001734
vt 0.399407 0.995894
vt 0.398451 0.005077
vt 0.000000 0.000000
vt 1.000000 0.000000
vt 1.000000 0.476801
vt 0.000000 0.476801
vt 0.375000 0.250000
vt 0.625000 0.250000
vt 0.625000 0.500000
vt 0.375000 0.500000
vt 0.075566 0.476801
vt 0.995957 0.476801
vt 0.995957 0.000000
vt 0.075566 0.000000
vt 0.000000 1.000000
vt 1.000000 1.000000
vt 1.000000 -0.000000
vt 0.000000 -0.000000
vt -0.202142 0.000000
vt 0.797858 0.000000
vt 0.797858 0.476801
vt 0.023204 0.476801
vt 0.797858 0.000000
vt -0.202142 0.000000
vt 0.023204 0.476801
vt 0.797858 0.476801
vt -0.003206 0.527303
vt 1.003206 0.527303
vt 1.003206 0.719977
vt -0.003206 0.719977
vt -0.005160 0.530214
vt 1.005160 0.530214
vt 1.005160 0.720992
vt -0.005160 0.720992
vt -0.007531 0.719841
vt 1.007531 0.719841
vt 1.007531 0.527439
vt -0.007531 0.527439
vt -0.005238 0.722648
vt 1.005238 0.722648
vt 1.005238 0.528557
vt -0.005238 0.528557
vt 0.625000 0.000000
vt 0.875000 0.000000
vt 0.875000 0.250000
vt 0.625000 0.250000
vt 0.125000 0.000000
vt 0.375000 0.000000
vt 0.375000 0.250000
vt 0.125000 0.250000
vt 0.002079 0.523199
vt 1.000000 0.523199
vt 1.000000 1.000000
vt 0.002079 1.000000
vt 0.375000 0.250000
vt 0.625000 0.250000
vt 0.625000 0.500000
vt 0.375000 0.500000
vt 0.001951 1.000000
vt 0.938743 1.000000
vt 0.938743 0.523199
vt 0.001951 0.523199
vt 0.375000 0.750000
vt 0.625000 0.750000
vt 0.625000 1.000000
vt 0.375000 1.000000
vt 0.144886 0.523199
vt 0.799782 0.523199
vt 0.799782 1.000000
vt 0.292464 1.000000
vt 0.799782 0.523199
vt 0.144886 0.523199
vt 0.292464 1.000000
vt 0.799782 1.000000
vt 0.000000 0.000000
vt 0.997921 0.000000
vt 0.997921 0.476801
vt 0.000000 0.476801
vt 0.375000 0.250000
vt 0.625000 0.250000
vt 0.625000 0.500000
vt 0.375000 0.500000
vt 0.000000 0.476801
vt 0.936790 0.476801
vt 0.936790 0.000000
vt 0.000000 0.000000
vt 0.000001 1.000000
vt 1.000001 1.000000
vt 1.000001 -0.000000
vt 0.000001 -0.000000
vt -0.200179 0.000000
vt 0.799821 0.000000
vt 0.799821 0.476801
vt 0.025167 0.476801
vt 0.799821 0.000000
vt -0.200179 0.000000
vt 0.025167 0.476801
vt 0.799821 0.476801
vt 0.000000 0.523199
vt 1.000000 0.523199
vt 1.000000 1.000000
vt 0.000000 1.000000
vt 0.375000 0.250000
vt 0.625000 0.250000
vt 0.625000 0.500000
vt 0.375000 0.500000
vt 0.075566 1.000000
vt 0.995957 1.000000
vt 0.995957 0.523199
vt 0.075566 0.523199
vt 0.375000 0.750000
vt 0.625000 0.750000
vt 0.625000 1.000000
vt 0.375000 1.000000
vt 0.142924 0.523199
vt 0.797820 0.523199
vt 0.797820 1.000000
vt 0.290501 1.000000
vt 0.797820 0.523199
vt 0.142924 0.523199
vt 0.290501 1.000000
vt 0.797820 1.000000
vt -0.003078 0.529510
vt 1.003078 0.529510
vt 1.003078 0.721695
vt -0.003078 0.721695
vt -0.000000 0.000000
vt 1.000000 0.000000
vt 1.000000 1.000000
vt -0.000000 1.000000
vt -0.006857 0.718891
vt 1.006857 0.718891
vt 1.006857 0.532314
vt -0.006857 0.532314
vt -0.000000 1.000000
vt 1.000000 1.000000
vt 1.000000 -0.000000
vt -0.000000 -0.000000
vt 0.235429 0.997133
vt 0.235309 0.042936
vt 0.375988 0.002867
vt 0.376108 0.957064
vt 0.233656 0.002303
vt 0.233585 0.997212
vt 0.377761 0.997697
vt 0.377832 0.002788
vt 0.124534 0.256496
vt 0.124534 1.000000
vt 0.127315 0.523472
vt 0.127315 0.719883
vt 0.124534 1.000000
vt 0.124534 0.256496
vt 0.396822 0.250000
vt 0.396822 0.000000
vt 0.045125 1.000000
vt 0.045125 0.256496
vt 0.048494 0.719883
vt 0.048494 0.523472
vt 0.045125 0.256496
vt 0.045125 1.000000
vt 0.375000 0.000000
vt 0.375000 0.250000
vn 0.000000 0.000000 1.000000
vn 0.000000 0.000000 1.000000
vn 0.000000 0.000000 1.000000
vn 0.000000 0.000000 1.000000
vn 0.000000 1.000000 0.000000
vn 0.000000 1.000000 0.000000
vn 0.000000 1.000000 0.000000
vn 0.000000 1.000000 0.000000
vn 0.000000 0.000000 -1.000000
vn 0.000000 0.000000 -1.000000
vn 0.000000 0.000000 -1.000000
vn 0.000000 0.000000 -1.000000
vn 0.000000 -1.000000 0.000000
vn 0.000000 -1.000000 0.000000
vn 0.000000 -1.000000 0.000000
vn 0.000000 -1.000000 0.000000
vn 1.000000 0.000000 0.000000
vn 1.000000 0.000000 0.000000
vn 1.000000 0.000000 0.000000
vn 1.000000 0.000000 0.000000
vn -1.000000 0.000000 0.000000
vn -1.000000 0.000000 0.000000
vn -1.000000 0.000000 0.000000
vn -1.000000 0.000000 0.000000
vn 0.000000 0.000000 1.000000
vn 0.000000 0.000000 1.000000
vn 0.000000 0.000000 1.000000
vn 0.000000 0.000000 1.000000
vn 0.000000 1.000000 0.000000
vn 0.000000 1.000000 0.000000
vn 0.000000 1.000000 0.000000
vn 0.000000 1.000000 0.000000
vn 0.000000 0.000000 -1.000000
vn 0.000000 0.000000 -1.000000
vn 0.000000 0.000000 -1.000000
vn 0.000000 0.000000 -1.000000
vn 0.000000 -1.000000 0.000000
vn 0.000000 -1.000000 0.000000
vn 0.000000 -1.000000 0.000000
vn 0.000000 -1.000000 0.000000
vn 1.000000 0.000000 0.000000
vn 1.000000 0.000000 0.000000
vn 1.000000 0.000000 0.000000
vn 1.000000 0.000000 0.000000
vn -1.000000 0.000000 0.000000
vn -1.000000 0.000000 0.000000
vn -1.000000 0.000000 0.000000
vn -1.000000 0.000000 0.000000
vn 0.000000 0.421218 0.906959
vn 0.000000 0.421218 0.906959
vn 0.000000 0.421218 0.906959
vn 0.000000 0.421218 0.906959
vn 0.000000 1.000000 0.000000
vn 0.000000 1.000000 0.000000
vn 0.000000 1.000000 0.000000
vn 0.000000 1.000000 0.000000
vn 0.000000 0.000000 -1.000000
vn 0.000000 0.000000 -1.000000
vn 0.000000 0.000000 -1.000000
vn 0.000000 0.000000 -1.000000
vn 0.000000 -1.000000 0.000000
vn 0.000000 -1.000000 0.000000
vn 0.000000 -1.000000 0.000000
vn 0.000000 -1.000000 0.000000
vn 1.000000 0.000000 0.000000
vn 1.000000 0.000000 0.000000
vn 1.000000 0.000000 0.000000
vn 1.000000 0.000000 0.000000
vn -1.000000 0.000000 0.000000
vn -1.000000 0.000000 0.000000
vn -1.000000 0.000000 0.000000
vn -1.000000 0.000000 0.000000
vn 0.000000 0.000000 1.000000
vn 0.000000 0.000000 1.000000
vn 0.000000 0.000000 1.000000
vn 0.000000 0.000000 1.000000
vn 0.000000 1.000000 0.000000
vn 0.000000 1.000000 0.000000
vn 0.000000 1.000000 0.000000
vn 0.000000 1.000000 0.000000
vn 0.000000 0.000000 -1.000000
vn 0.000000 0.000000 -1.000000
vn 0.000000 0.000000 -1.000000
vn 0.000000 0.000000 -1.000000
vn 0.000000 -1.000000 0.000000
vn 0.000000 -1.000000 0.000000
vn 0.000000 -1.000000 0.000000
vn 0.000000 -1.000000 0.000000
vn 1.000000 0.000000 0.000000
vn 1.000000 0.000000 0.000000
vn 1.000000 0.000000 0.000000
vn 1.000000 0.000000 0.000000
vn -1.000000 0.000000 0.000000
vn -1.000000 0.000000 0.000000
vn -1.000000 0.000000 0.000000
vn -1.000000 0.000000 0.000000
vn 0.000000 0.290991 0.956726
vn 0.000000 0.290991 0.956726
vn 0.000000 0.290991 0.956726
vn 0.000000 0.290991 0.956726
vn 0.000000 1.000000 0.000000
vn 0.000000 1.000000 0.000000
vn 0.000000 1.000000 0.000000
vn 0.000000 1.000000 0.000000
vn 0.000000 0.000000 -1.000000
vn 0.000000 0.000000 -1.000000
vn 0.000000 0.000000 -1.000000
vn 0.000000 0.000000 -1.000000
vn 0.000000 -1.000000 0.000000
vn 0.000000 -1.000000 0.000000
vn 0.000000 -1.000000 0.000000
vn 0.000000 -1.000000 0.000000
vn 1.000000 0.000000 0.000000
vn 1.000000 0.000000 0.000000
vn 1.000000 0.000000 0.000000
vn 1.000000 0.000000 0.000000
vn -1.000000 0.000000 0.000000
vn -1.000000 0.000000 0.000000
vn -1.000000 0.000000 0.000000
vn -1.000000 0.000000 0.000000
vn 0.000000 0.421218 0.906959
vn 0.000000 0.421218 0.906959
vn 0.000000 0.421218 0.906959
vn 0.000000 0.421218 0.906959
vn 0.000000 1.000000 0.000000
vn 0.000000 1.000000 0.000000
vn 0.000000 1.000000 0.000000
vn 0.000000 1.000000 0.000000
vn 0.000000 0.000000 -1.000000
vn 0.000000 0.000000 -1.000000
vn 0.000000 0.000000 -1.000000
vn 0.000000 0.000000 -1.000000
vn 0.000000 -1.000000 0.000000
vn 0.000000 -1.000000 0.000000
vn 0.000000 -1.000000 0.000000
vn 0.000000 -1.000000 0.000000
vn 1.000000 0.000000 0.000000
vn 1.000000 0.000000 0.000000
vn 1.000000 0.000000 0.000000
vn 1.000000 0.000000 0.000000
vn -1.000000 0.000000 0.000000
vn -1.000000 0.000000 0.000000
vn -1.000000 0.000000 0.000000
vn -1.000000 0.000000 0.000000
vn 0.000000 0.290991 0.956726
vn 0.000000 0.290991 0.956726
vn 0.000000 0.290991 0.956726
vn 0.000000 0.290991 0.956726
vn 0.000000 1.000000 0.000000
vn 0.000000 1.000000 0.000000
vn 0.000000 1.000000 0.000000
vn 0.000000 1.000000 0.000000
vn 0.000000 0.000000 -1.000000
vn 0.000000 0.000000 -1.000000
vn 0.000000 0.000000 -1.000000
vn 0.000000 0.000000 -1.000000
vn 0.000000 -1.000000 0.000000
vn 0.000000 -1.000000 0.000000
vn 0.000000 -1.000000 0.000000
vn 0.000000 -1.000000 0.000000
vn 1.000000 0.000000 0.000000
vn 1.000000 0.000000 0.000000
vn 1.000000 0.000000 0.000000
vn 1.000000 0.000000 0.000000
vn -1.000000 0.000000 0.000000
vn -1.000000 0.000000 0.000000
vn -1.000000 0.000000 0.000000
vn -1.000000 0.000000 0.000000
vn 0.000000 0.000000 1.000000
vn 0.000000 0.000000 1.000000
vn 0.000000 0.000000 1.000000
vn 0.000000 0.000000 1.000000
vn 0.000000 1.000000 0.000000
vn 0.000000 1.000000 0.000000
vn 0.000000 1.000000 0.000000
vn 0.000000 1.000000 0.000000
vn 0.000000 0.000000 -1.000000
vn 0.000000 0.000000 -1.000000
vn 0.000000 0.000000 -1.000000
vn 0.000000 0.000000 -1.000000
vn 0.000000 -1.000000 0.000000
vn 0.000000 -1.000000 0.000000
vn 0.000000 -1.000000 0.000000
vn 0.000000 -1.000000 0.000000
vn 1.000000 0.000000 0.000000
vn 1.000000 0.000000 0.000000
vn 1.000000 0.000000 0.000000
vn 1.000000 0.000000 0.000000
vn -1.000000 0.000000 0.000000
vn -1.000000 0.000000 0.000000
vn -1.000000 0.000000 0.000000
vn -1.000000 0.000000 0.000000
vn 0.000000 -1.000000 0.000000
vn 0.000000 -1.000000 0.000000
vn 0.000000 -1.000000 0.000000
vn 0.000000 -1.000000 0.000000
vn 0.000000 0.000000 -1.000000
vn 0.000000 0.000000 -1.000000
vn 0.000000 0.000000 -1.000000
vn 0.000000 0.000000 -1.000000
vn 0.000000 1.000000 0.000000
vn 0.000000 1.000000 0.000000
vn 0.000000 1.000000 0.000000
vn 0.000000 1.000000 0.000000
vn 0.000000 0.000000 1.000000
vn 0.000000 0.000000 1.000000
vn 0.000000 0.000000 1.000000
vn 0.000000 0.000000 1.000000
vn 0.000000 -1.000000 0.000000
vn 0.000000 -1.000000 0.000000
vn 0.000000 -1.000000 0.000000
vn 0.000000 -1.000000 0.000000
vn 0.000000 0.000000 -1.000000
vn 0.000000 0.000000 -1.000000
vn 0.000000 0.000000 -1.000000
vn 0.000000 0.000000 -1.000000
vn 0.000000 1.000000 0.000000
vn 0.000000 1.000000 0.000000
vn 0.000000 1.000000 0.000000
vn 0.000000 1.000000 0.000000
vn 0.000000 0.000000 1.000000
vn 0.000000 0.000000 1.000000
vn 0.000000 0.000000 1.000000
vn 0.000000 0.000000 1.000000
s off
g Escalera:pCube11
usemtl Escalera:initialShadingGroup
f 68/1/1 65/2/2 2/3/3 4/4/4
usemtl Escalera:phong1SG
f 67/5/5 68/6/6 4/7/7 6/8/8
usemtl Escalera:phong2SG
f 66/9/9 67/10/10 6/11/11 8/12/12
f 65/13/13 66/14/14 8/15/15 2/16/16
f 2/17/17 8/18/18 6/19/19 4/20/20
f 7/21/21 1/22/22 3/23/23 5/24/24
f 9/25/25 10/26/26 12/27/27 11/28/28
f 11/29/29 12/30/30 14/31/31 13/32/32
f 13/33/33 14/34/34 16/35/35 15/36/36
f 15/37/37 16/38/38 10/39/39 9/40/40
f 10/41/41 16/42/42 14/43/43 12/44/44
f 15/45/45 9/46/46 11/47/47 13/48/48
usemtl Escalera:phong1SG
f 17/49/49 18/50/50 20/51/51 19/52/52
usemtl Escalera:initialShadingGroup
f 19/53/53 20/54/54 22/55/55 21/56/56
usemtl Escalera:phong1SG
f 21/57/57 22/58/58 24/59/59 23/60/60
f 23/61/61 24/62/62 18/63/63 17/64/64
f 18/65/65 24/66/66 22/67/67 20/68/68
f 23/69/69 17/70/70 19/71/71 21/72/72
usemtl Escalera:phong2SG
f 25/73/73 26/74/74 28/75/75 27/76/76
f 27/77/77 28/78/78 30/79/79 29/80/80
f 29/81/81 30/82/82 32/83/83 31/84/84
f 31/85/85 32/86/86 26/87/87 25/88/88
usemtl Escalera:initialShadingGroup
f 26/89/89 32/90/90 30/91/91 28/92/92
f 31/93/93 25/94/94 27/95/95 29/96/96
usemtl Escalera:phong1SG
f 33/97/97 34/98/98 36/99/99 35/100/100
usemtl Escalera:initialShadingGroup
f 35/101/101 36/102/102 38/103/103 37/104/104
usemtl Escalera:phong1SG
f 37/105/105 38/106/106 40/107/107 39/108/108
usemtl Escalera:initialShadingGroup
f 39/109/109 40/110/110 34/111/111 33/112/112
usemtl Escalera:phong1SG
f 34/113/113 40/114/114 38/115/115 36/116/116
f 39/117/117 33/118/118 35/119/119 37/120/120
f 41/121/121 42/122/122 44/123/123 43/124/124
usemtl Escalera:initialShadingGroup
f 43/125/125 44/126/126 46/127/127 45/128/128
usemtl Escalera:phong1SG
f 45/129/129 46/130/130 48/131/131 47/132/132
f 47/133/133 48/134/134 42/135/135 41/136/136
f 42/137/137 48/138/138 46/139/139 44/140/140
f 47/141/141 41/142/142 43/143/143 45/144/144
f 49/145/145 50/146/146 52/147/147 51/148/148
usemtl Escalera:initialShadingGroup
f 51/149/149 52/150/150 54/151/151 53/152/152
usemtl Escalera:phong1SG
f 53/153/153 54/154/154 56/155/155 55/156/156
usemtl Escalera:initialShadingGroup
f 55/157/157 56/158/158 50/159/159 49/160/160
usemtl Escalera:phong1SG
f 50/161/161 56/162/162 54/163/163 52/164/164
f 55/165/165 49/166/166 51/167/167 53/168/168
usemtl Escalera:phong2SG
f 57/169/169 58/170/170 60/171/171 59/172/172
f 59/173/173 60/174/174 62/175/175 61/176/176
f 61/177/177 62/178/178 64/179/179 63/180/180
f 63/181/181 64/182/182 58/183/183 57/184/184
f 58/185/185 64/186/186 62/187/187 60/188/188
f 63/189/189 57/190/190 59/191/191 61/192/192
f 69/193/193 70/194/194 66/14/195 65/13/196
f 70/195/197 71/196/198 67/10/199 66/9/200
f 71/197/201 72/198/202 68/6/203 67/5/204
usemtl Escalera:initialShadingGroup
f 72/199/205 69/200/206 65/2/207 68/1/208
usemtl Escalera:phong2SG
f 7/201/209 70/194/210 69/193/211 1/202/212
f 5/203/213 71/196/214 70/195/215 7/204/216
usemtl Escalera:phong1SG
f 3/205/217 72/198/218 71/197/219 5/206/220
usemtl Escalera:initialShadingGroup
f 1/207/221 69/200/222 72/199/223 3/208/224
