# This file uses centimeters as units for non-parametric coordinates.

mtllib Sotano.mtl
g default
v 2.022056 -0.233088 12.850043
v -2.022056 -0.233088 12.850043
v 2.022056 6.220970 12.850043
v -2.022056 6.220970 12.850043
v 2.022056 6.220970 13.157238
v -2.022056 6.220970 13.157238
v 2.022056 -0.233088 13.157238
v -2.022056 -0.233088 13.157238
vt 0.000000 0.000000
vt 1.000000 0.000000
vt 0.000000 1.000000
vt 1.000000 1.000000
vt 0.000000 0.402685
vt 1.000000 0.402685
vt 0.000000 0.597315
vt 1.000000 0.597315
vt 0.000000 1.000000
vt 1.000000 1.000000
vt 0.000000 0.000000
vt 1.000000 0.000000
vt 0.000000 0.601790
vt 1.000000 0.601790
vt 0.000000 0.398210
vt 1.000000 0.398210
vt 0.380313 0.000000
vt 0.619687 0.000000
vt 0.380313 1.000000
vt 0.619687 1.000000
vt 0.374133 0.000000
vt 0.134760 0.000000
vt 0.374133 1.000000
vt 0.134760 1.000000
vn 0.000000 0.000000 -1.000000
vn 0.000000 0.000000 -1.000000
vn 0.000000 0.000000 -1.000000
vn 0.000000 0.000000 -1.000000
vn 0.000000 0.000000 -1.000000
vn 0.000000 0.000000 -1.000000
vn 0.000000 1.000000 -0.000000
vn 0.000000 1.000000 -0.000000
vn 0.000000 1.000000 -0.000000
vn 0.000000 1.000000 -0.000000
vn 0.000000 1.000000 -0.000000
vn 0.000000 1.000000 -0.000000
vn -0.000000 0.000000 1.000000
vn -0.000000 0.000000 1.000000
vn -0.000000 0.000000 1.000000
vn -0.000000 0.000000 1.000000
vn -0.000000 0.000000 1.000000
vn -0.000000 0.000000 1.000000
vn 0.000000 -1.000000 0.000000
vn 0.000000 -1.000000 0.000000
vn 0.000000 -1.000000 0.000000
vn 0.000000 -1.000000 0.000000
vn 0.000000 -1.000000 0.000000
vn 0.000000 -1.000000 0.000000
vn -1.000000 0.000000 -0.000000
vn -1.000000 0.000000 -0.000000
vn -1.000000 0.000000 -0.000000
vn -1.000000 0.000000 -0.000000
vn -1.000000 0.000000 -0.000000
vn -1.000000 0.000000 -0.000000
vn 1.000000 0.000000 0.000000
vn 1.000000 0.000000 0.000000
vn 1.000000 0.000000 0.000000
vn 1.000000 0.000000 0.000000
vn 1.000000 0.000000 0.000000
vn 1.000000 0.000000 0.000000
s off
g Sotano:pCube2
usemtl Sotano:phong5SG
f 1/1/1 2/2/2 3/3/3
f 3/3/4 2/2/5 4/4/6
f 3/5/7 4/6/8 5/7/9
f 5/7/10 4/6/11 6/8/12
f 5/9/13 6/10/14 7/11/15
f 7/11/16 6/10/17 8/12/18
f 7/13/19 8/14/20 1/15/21
f 1/15/22 8/14/23 2/16/24
f 2/17/25 8/18/26 4/19/27
f 4/19/28 8/18/29 6/20/30
f 7/21/31 1/22/32 5/23/33
f 5/23/34 1/22/35 3/24/36
g default
v 19.140390 -0.207270 -11.286761
v -5.202971 -0.207270 -11.286761
v 19.140390 12.956173 -11.286761
v -5.202971 12.956173 -11.286761
v 19.140390 12.956173 12.838632
v -5.202971 12.956173 12.838632
v 19.140390 -0.207270 12.838632
v -5.202971 -0.207270 12.838632
v 1.894579 -0.207270 12.838632
v -1.976162 -0.207270 12.838632
v -1.971975 6.193294 12.838632
v 1.957673 6.206129 12.838632
vt 0.000000 0.000000
vt 1.000000 0.000000
vt 0.000000 1.000000
vt 1.000000 1.000000
vt -0.290828 -0.290828
vt 1.290828 -0.290828
vt -0.290828 1.290828
vt 1.290828 1.290828
vt 0.000000 1.000000
vt 1.000000 1.000000
vt 0.000000 0.000000
vt 1.000000 0.000000
vt 0.867446 0.000000
vt 0.867274 0.486238
vt 0.708440 0.000000
vt 0.705848 0.487213
vt -1.002838 2.002837
vt 1.126503 2.002837
vt -1.002838 -1.002837
vt 2.002838 2.002837
vt 2.002838 -1.002837
vt 1.604423 2.002837
vt -0.000000 0.000000
vt 1.000000 0.000000
vt -0.000000 1.000000
vt 1.000000 1.000000
vt 1.000000 0.000000
vt -0.000000 0.000000
vt 1.000000 1.000000
vt -0.000000 1.000000
vn 0.000000 0.000000 -1.000000
vn 0.000000 0.000000 -1.000000
vn 0.000000 0.000000 -1.000000
vn 0.000000 0.000000 -1.000000
vn 0.000000 0.000000 -1.000000
vn 0.000000 0.000000 -1.000000
vn 0.000000 1.000000 -0.000000
vn 0.000000 1.000000 -0.000000
vn 0.000000 1.000000 -0.000000
vn 0.000000 1.000000 -0.000000
vn 0.000000 1.000000 -0.000000
vn 0.000000 1.000000 -0.000000
vn -0.000000 0.000000 1.000000
vn -0.000000 0.000000 1.000000
vn -0.000000 0.000000 1.000000
vn -0.000000 0.000000 1.000000
vn -0.000000 0.000000 1.000000
vn -0.000000 0.000000 1.000000
vn -0.000000 0.000000 1.000000
vn 0.000001 0.000000 1.000000
vn -0.000000 0.000000 1.000000
vn -0.000000 0.000000 1.000000
vn -0.000000 0.000000 1.000000
vn -0.000000 0.000000 1.000000
vn -0.000000 0.000000 1.000000
vn -0.000000 0.000000 1.000000
vn -0.000000 0.000000 1.000000
vn -0.000000 0.000000 1.000000
vn 0.000001 0.000000 1.000000
vn -0.000000 0.000000 1.000000
vn 0.000000 -1.000000 0.000000
vn 0.000000 -1.000000 0.000000
vn 0.000000 -1.000000 0.000000
vn 0.000000 -1.000000 0.000000
vn 0.000000 -1.000000 0.000000
vn 0.000000 -1.000000 0.000000
vn 0.000000 -1.000000 0.000000
vn 0.000000 -1.000000 0.000000
vn 0.000000 -1.000000 0.000000
vn 0.000000 -1.000000 0.000000
vn 0.000000 -1.000000 0.000000
vn 0.000000 -1.000000 0.000000
vn -1.000000 0.000000 -0.000000
vn -1.000000 0.000000 -0.000000
vn -1.000000 0.000000 -0.000000
vn -1.000000 0.000000 -0.000000
vn -1.000000 0.000000 -0.000000
vn -1.000000 0.000000 -0.000000
vn 1.000000 0.000000 0.000000
vn 1.000000 0.000000 0.000000
vn 1.000000 0.000000 0.000000
vn 1.000000 0.000000 0.000000
vn 1.000000 0.000000 0.000000
vn 1.000000 0.000000 0.000000
s off
g Sotano:pCube1
usemtl Sotano:phong2SG
f 9/25/37 10/26/38 11/27/39
f 11/27/40 10/26/41 12/28/42
usemtl Sotano:phong3SG
f 11/29/43 12/30/44 13/31/45
f 13/31/46 12/30/47 14/32/48
usemtl Sotano:phong2SG
f 13/33/49 14/34/50 15/35/51
f 16/36/52 18/37/53 14/34/54
f 18/37/55 19/38/56 14/34/57
f 17/39/58 15/35/59 20/40/60
f 15/35/61 14/34/62 20/40/63
f 14/34/64 19/38/65 20/40/66
usemtl Sotano:phong4SG
f 15/41/67 17/42/68 9/43/69
f 16/44/70 10/45/71 18/46/72
f 18/46/73 10/45/74 17/42/75
f 17/42/76 10/45/77 9/43/78
usemtl Sotano:phong2SG
f 10/47/79 16/48/80 12/49/81
f 12/49/82 16/48/83 14/50/84
f 15/51/85 9/52/86 13/53/87
f 13/53/88 9/52/89 11/54/90
