# This file uses centimeters as units for non-parametric coordinates.

mtllib Sotano.mtl
g default
v -2.022056 -0.233088 -12.850043
v 2.022056 -0.233088 -12.850043
v -2.022056 6.220970 -12.850043
v 2.022056 6.220970 -12.850043
v -2.022056 6.220970 -13.157238
v 2.022056 6.220970 -13.157238
v -2.022056 -0.233088 -13.157238
v 2.022056 -0.233088 -13.157238
vt 0.374133 0.000000
vt 0.380313 0.000000
vt 0.134760 0.000000
vt 0.619687 0.000000
vt 0.000000 0.402685
vt 1.000000 0.402685
vt 0.000000 0.601790
vt 1.000000 0.601790
vt 1.000000 0.398210
vt 0.000000 0.398210
vt 0.619687 1.000000
vt 0.380313 1.000000
vt 0.134760 1.000000
vt 0.374133 1.000000
vt 0.000000 1.000000
vt 1.000000 1.000000
vt 1.000000 0.000000
vt 0.000000 0.000000
vt 0.000000 0.000000
vt 1.000000 0.000000
vt 1.000000 1.000000
vt 0.000000 1.000000
vt 1.000000 0.597315
vt 0.000000 0.597315
vn 0.000000 0.000000 1.000000
vn 0.000000 0.000000 1.000000
vn 0.000000 0.000000 1.000000
vn 0.000000 0.000000 1.000000
vn 0.000000 1.000000 0.000000
vn 0.000000 1.000000 0.000000
vn 0.000000 1.000000 0.000000
vn 0.000000 1.000000 0.000000
vn 0.000000 0.000000 -1.000000
vn 0.000000 0.000000 -1.000000
vn 0.000000 0.000000 -1.000000
vn 0.000000 0.000000 -1.000000
vn 0.000000 -1.000000 0.000000
vn 0.000000 -1.000000 0.000000
vn 0.000000 -1.000000 0.000000
vn 0.000000 -1.000000 0.000000
vn 1.000000 0.000000 0.000000
vn 1.000000 0.000000 0.000000
vn 1.000000 0.000000 0.000000
vn 1.000000 0.000000 0.000000
vn -1.000000 0.000000 0.000000
vn -1.000000 0.000000 0.000000
vn -1.000000 0.000000 0.000000
vn -1.000000 0.000000 0.000000
s 1
g pCube2
usemtl phong5SG
f 1/19/1 2/20/2 3/22/3
f 3/22/3 2/20/2 4/21/4
s 2
f 3/5/5 4/6/6 5/24/7
f 5/24/7 4/6/6 6/23/8
s 3
f 5/15/9 6/16/10 7/18/11
f 7/18/11 6/16/10 8/17/12
s 4
f 7/7/13 8/8/14 1/10/15
f 1/10/15 8/8/14 2/9/16
s 5
f 2/2/17 8/4/18 4/12/19
f 4/12/19 8/4/18 6/11/20
s 6
f 7/1/21 1/3/22 5/14/23
f 5/14/23 1/3/22 3/13/24
g default
v -19.140390 -0.207270 11.286761
v 5.202971 -0.207270 11.286761
v -19.140390 12.956173 11.286761
v 5.202971 12.956173 11.286761
v -19.140390 12.956173 -12.838632
v 5.202971 12.956173 -12.838632
v -19.140390 -0.207270 -12.838632
v 5.202971 -0.207270 -12.838632
v -1.894579 -0.207270 -12.838632
v 1.976162 -0.207270 -12.838632
v 1.971975 6.193294 -12.838632
v -1.957673 6.206129 -12.838632
vt 1.000000 0.000000
vt -0.000000 0.000000
vt -0.290828 -0.290828
vt 1.290828 -0.290828
vt 1.290828 1.290828
vt -0.290828 1.290828
vt -1.002838 2.002837
vt 1.126503 2.002837
vt 1.604423 2.002837
vt 2.002838 2.002837
vt 1.000000 0.000000
vt 1.000000 1.000000
vt -0.000000 0.000000
vt -0.000000 1.000000
vt 2.002838 -1.002837
vt -1.002838 -1.002837
vt 0.000000 1.000000
vt 1.000000 1.000000
vt 1.000000 0.000000
vt 0.867446 0.000000
vt 0.867274 0.486238
vt 0.705848 0.487213
vt 0.708440 0.000000
vt 0.000000 0.000000
vt 0.000000 0.000000
vt 1.000000 0.000000
vt 1.000000 1.000000
vt 0.000000 1.000000
vt -0.000000 1.000000
vt 1.000000 1.000000
vn 0.000000 0.000000 1.000000
vn 0.000000 0.000000 1.000000
vn 0.000000 0.000000 1.000000
vn 0.000000 0.000000 1.000000
vn 0.000000 1.000000 0.000000
vn 0.000000 1.000000 0.000000
vn 0.000000 1.000000 0.000000
vn 0.000000 1.000000 0.000000
vn 0.000000 0.000000 -1.000000
vn 0.000000 0.000000 -1.000000
vn 0.000000 0.000000 -1.000000
vn 0.000000 0.000000 -1.000000
vn -0.000000 0.000000 -1.000000
vn -0.000001 0.000000 -1.000000
vn 0.000000 0.000000 -1.000000
vn 0.000000 0.000000 -1.000000
vn 0.000000 -1.000000 0.000000
vn 0.000000 -1.000000 0.000000
vn 0.000000 -1.000000 0.000000
vn 0.000000 -1.000000 0.000000
vn 0.000000 -1.000000 0.000000
vn 0.000000 -1.000000 0.000000
vn 1.000000 0.000000 0.000000
vn 1.000000 0.000000 0.000000
vn 1.000000 0.000000 0.000000
vn 1.000000 0.000000 0.000000
vn -1.000000 0.000000 0.000000
vn -1.000000 0.000000 0.000000
vn -1.000000 0.000000 0.000000
vn -1.000000 0.000000 0.000000
s 1
g pCube1
usemtl phong2SG
f 9/49/25 10/50/26 11/52/27
f 11/52/27 10/50/26 12/51/28
s 2
usemtl phong3SG
f 11/27/29 12/28/30 13/30/31
f 13/30/31 12/28/30 14/29/32
s 3
usemtl phong2SG
f 13/41/33 14/42/34 15/48/35
f 16/43/36 18/44/37 14/42/34
f 18/44/37 19/45/38 14/42/34
f 17/47/39 15/48/35 20/46/40
f 15/48/35 14/42/34 20/46/40
f 14/42/34 19/45/38 20/46/40
s 5
usemtl phong4SG
f 15/31/41 17/32/42 9/40/43
f 16/34/44 10/39/45 18/33/46
f 18/33/46 10/39/45 17/32/42
f 17/32/42 10/39/45 9/40/43
s 7
usemtl phong2SG
f 10/26/47 16/35/48 12/53/49
f 12/53/49 16/35/48 14/36/50
s 8
f 15/25/51 9/37/52 13/54/53
f 13/54/53 9/37/52 11/38/54
