# This file uses centimeters as units for non-parametric coordinates.

mtllib Silla.mtl
g default
v 3.358886 0.320888 -0.198773
v 3.358886 0.320888 0.099008
v 3.017218 0.320888 -0.198773
v 3.017218 0.320888 0.099008
v 3.017218 2.695317 -0.198773
v 3.017218 2.695317 0.099008
v 3.358886 2.695317 -0.198773
v 3.358886 2.695317 0.099008
v 5.225431 0.320888 -2.065318
v 5.225431 0.320888 -1.767536
v 4.883762 0.320888 -2.065318
v 4.883762 0.320888 -1.767536
v 4.883762 2.695317 -2.065318
v 4.883762 2.695317 -1.767536
v 5.225431 2.695317 -2.065318
v 5.225431 2.695317 -1.767536
v 5.431071 3.009509 -2.090304
v 5.422218 3.008811 0.123994
v 5.089403 3.009509 -2.090304
v 5.080549 3.008811 0.123994
v 5.089403 5.692332 -2.090304
v 5.080549 5.691634 0.123994
v 5.431071 5.692332 -2.090304
v 5.422218 5.691634 0.123994
v 3.358886 0.320888 -2.065318
v 3.358886 0.320888 -1.767536
v 3.017218 0.320888 -2.065318
v 3.017218 0.320888 -1.767536
v 3.017218 2.695317 -2.065318
v 3.017218 2.695317 -1.767536
v 3.358886 2.695317 -2.065318
v 3.358886 2.695317 -1.767536
v 2.779913 2.682992 -2.324404
v 2.779215 2.691846 0.358095
v 2.779913 3.024661 -2.324404
v 2.779215 3.033515 0.358095
v 5.462736 3.024661 -2.324404
v 5.462038 3.033515 0.358095
v 5.462736 2.682992 -2.324404
v 5.462038 2.691846 0.358095
v 5.225431 0.320888 -0.198773
v 5.225431 0.320888 0.099008
v 4.883762 0.320888 -0.198773
v 4.883762 0.320888 0.099008
v 4.883762 2.695317 -0.198773
v 4.883762 2.695317 0.099008
v 5.225431 2.695317 -0.198773
v 5.225431 2.695317 0.099008
vt 0.000000 1.000000
vt 1.000000 1.000000
vt 1.000000 0.000000
vt 0.000000 0.000000
vt -0.000544 0.999456
vt 0.000544 -0.000544
vt 1.000544 0.000544
vt 0.999456 1.000544
vt 0.000000 0.000000
vt 1.000000 0.000000
vt 1.000000 1.000000
vt 0.000000 1.000000
vt 0.998700 1.001297
vt 1.001297 0.001300
vt 0.001300 -0.001297
vt -0.001297 0.998700
vt 0.000746 -0.000745
vt 1.000745 0.000746
vt 0.999254 1.000745
vt -0.000745 0.999254
vt 1.001879 0.001886
vt 0.001886 -0.001879
vt -0.001879 0.998114
vt 0.998114 1.001879
vt 0.000000 1.000000
vt 1.000000 1.000000
vt 1.000000 0.000000
vt 0.000000 0.000000
vt -0.000544 0.999456
vt 0.000544 -0.000544
vt 1.000544 0.000544
vt 0.999456 1.000544
vt 0.000000 0.000000
vt 1.000000 0.000000
vt 1.000000 1.000000
vt 0.000000 1.000000
vt 0.998700 1.001297
vt 1.001297 0.001300
vt 0.001300 -0.001297
vt -0.001297 0.998700
vt 0.000746 -0.000745
vt 1.000745 0.000746
vt 0.999254 1.000745
vt -0.000745 0.999254
vt 1.001879 0.001886
vt 0.001886 -0.001879
vt -0.001879 0.998114
vt 0.998114 1.001879
vt 0.000000 0.000000
vt 1.000000 0.025259
vt 1.000000 1.000000
vt 0.000000 0.974742
vt 0.001880 1.001614
vt -0.001615 0.001620
vt 0.998120 -0.001614
vt 1.001615 0.998380
vt 0.000000 0.974742
vt 1.000000 1.000000
vt 1.000000 0.025259
vt 0.000000 0.000000
vt 0.996637 1.003341
vt 1.003081 0.003362
vt 0.003363 -0.003341
vt -0.003081 0.996638
vt -0.000000 -0.000000
vt 1.000000 -0.000000
vt 1.000000 1.000000
vt -0.000000 1.000000
vt 1.000000 0.000000
vt 0.000000 0.000000
vt 0.000000 1.000000
vt 1.000000 1.000000
vt 0.000000 1.000000
vt 1.000000 1.000000
vt 1.000000 0.000000
vt 0.000000 0.000000
vt -0.000544 0.999456
vt 0.000544 -0.000544
vt 1.000544 0.000544
vt 0.999456 1.000544
vt 0.000000 0.000000
vt 1.000000 0.000000
vt 1.000000 1.000000
vt 0.000000 1.000000
vt 0.998700 1.001297
vt 1.001297 0.001300
vt 0.001300 -0.001297
vt -0.001297 0.998700
vt 0.000746 -0.000745
vt 1.000745 0.000746
vt 0.999254 1.000745
vt -0.000745 0.999254
vt 1.001879 0.001886
vt 0.001886 -0.001879
vt -0.001879 0.998114
vt 0.998114 1.001879
vt 0.000000 0.000000
vt 1.000000 0.025259
vt 1.000000 1.000000
vt 0.000000 0.974742
vt 0.000000 0.000260
vt 1.000000 -0.000000
vt 1.000000 0.999740
vt 0.000000 1.000000
vt 0.000000 0.974742
vt 1.000000 1.000000
vt 1.000000 0.025259
vt 0.000000 0.000000
vt 0.000000 1.000000
vt 1.000000 0.999740
vt 1.000000 -0.000000
vt 0.000000 0.000260
vt -0.000000 -0.000000
vt 1.000000 -0.000000
vt 1.000000 1.000000
vt -0.000000 1.000000
vt 1.000000 0.000000
vt 0.000000 0.000000
vt 0.000000 1.000000
vt 1.000000 1.000000
vt 0.000000 1.000000
vt 1.000000 1.000000
vt 1.000000 0.000000
vt 0.000000 0.000000
vt -0.000544 0.999456
vt 0.000544 -0.000544
vt 1.000544 0.000544
vt 0.999456 1.000544
vt 0.000000 0.000000
vt 1.000000 0.000000
vt 1.000000 1.000000
vt 0.000000 1.000000
vt 0.998700 1.001297
vt 1.001297 0.001300
vt 0.001300 -0.001297
vt -0.001297 0.998700
vt 0.000746 -0.000745
vt 1.000745 0.000746
vt 0.999254 1.000745
vt -0.000745 0.999254
vt 1.001879 0.001886
vt 0.001886 -0.001879
vt -0.001879 0.998114
vt 0.998114 1.001879
vn 0.000000 -1.000000 0.000000
vn 0.000000 -1.000000 0.000000
vn 0.000000 -1.000000 0.000000
vn 0.000000 -1.000000 0.000000
vn -1.000000 0.000000 0.000000
vn -1.000000 0.000000 0.000000
vn -1.000000 0.000000 0.000000
vn -1.000000 0.000000 0.000000
vn 0.000000 1.000000 0.000000
vn 0.000000 1.000000 0.000000
vn 0.000000 1.000000 0.000000
vn 0.000000 1.000000 0.000000
vn 1.000000 0.000000 0.000000
vn 1.000000 0.000000 0.000000
vn 1.000000 0.000000 0.000000
vn 1.000000 0.000000 0.000000
vn 0.000000 0.000000 1.000000
vn 0.000000 0.000000 1.000000
vn 0.000000 0.000000 1.000000
vn 0.000000 0.000000 1.000000
vn 0.000000 0.000000 -1.000000
vn 0.000000 0.000000 -1.000000
vn 0.000000 0.000000 -1.000000
vn 0.000000 0.000000 -1.000000
vn 0.000000 -1.000000 0.000000
vn 0.000000 -1.000000 0.000000
vn 0.000000 -1.000000 0.000000
vn 0.000000 -1.000000 0.000000
vn -1.000000 0.000000 0.000000
vn -1.000000 0.000000 0.000000
vn -1.000000 0.000000 0.000000
vn -1.000000 0.000000 0.000000
vn 0.000000 1.000000 0.000000
vn 0.000000 1.000000 0.000000
vn 0.000000 1.000000 0.000000
vn 0.000000 1.000000 0.000000
vn 1.000000 0.000000 0.000000
vn 1.000000 0.000000 0.000000
vn 1.000000 0.000000 0.000000
vn 1.000000 0.000000 0.000000
vn 0.000000 0.000000 1.000000
vn 0.000000 0.000000 1.000000
vn 0.000000 0.000000 1.000000
vn 0.000000 0.000000 1.000000
vn 0.000000 0.000000 -1.000000
vn 0.000000 0.000000 -1.000000
vn 0.000000 0.000000 -1.000000
vn 0.000000 0.000000 -1.000000
vn 0.000000 -1.000000 -0.000315
vn 0.000000 -1.000000 -0.000315
vn 0.000000 -1.000000 -0.000315
vn 0.000000 -1.000000 -0.000315
vn -0.999992 0.000000 -0.003998
vn -0.999992 0.000000 -0.003998
vn -0.999992 0.000000 -0.003998
vn -0.999992 0.000000 -0.003998
vn 0.000000 1.000000 0.000315
vn 0.000000 1.000000 0.000315
vn 0.000000 1.000000 0.000316
vn 0.000000 1.000000 0.000316
vn 0.999992 0.000000 0.003998
vn 0.999992 0.000000 0.003998
vn 0.999992 0.000000 0.003998
vn 0.999992 0.000000 0.003998
vn 0.000000 0.000000 1.000000
vn 0.000000 0.000000 1.000000
vn 0.000000 0.000000 1.000000
vn 0.000000 0.000000 1.000000
vn 0.000000 0.000000 -1.000000
vn 0.000000 0.000000 -1.000000
vn 0.000000 0.000000 -1.000000
vn 0.000000 0.000000 -1.000000
vn 0.000000 -1.000000 0.000000
vn 0.000000 -1.000000 0.000000
vn 0.000000 -1.000000 0.000000
vn 0.000000 -1.000000 0.000000
vn -1.000000 0.000000 0.000000
vn -1.000000 0.000000 0.000000
vn -1.000000 0.000000 0.000000
vn -1.000000 0.000000 0.000000
vn 0.000000 1.000000 0.000000
vn 0.000000 1.000000 0.000000
vn 0.000000 1.000000 0.000000
vn 0.000000 1.000000 0.000000
vn 1.000000 0.000000 0.000000
vn 1.000000 0.000000 0.000000
vn 1.000000 0.000000 0.000000
vn 1.000000 0.000000 0.000000
vn 0.000000 0.000000 1.000000
vn 0.000000 0.000000 1.000000
vn 0.000000 0.000000 1.000000
vn 0.000000 0.000000 1.000000
vn 0.000000 0.000000 -1.000000
vn 0.000000 0.000000 -1.000000
vn 0.000000 0.000000 -1.000000
vn 0.000000 0.000000 -1.000000
vn -1.000000 0.000000 -0.000260
vn -1.000000 0.000000 -0.000260
vn -1.000000 0.000000 -0.000260
vn -1.000000 0.000000 -0.000260
vn 0.000000 0.999995 -0.003300
vn 0.000000 0.999995 -0.003300
vn 0.000000 0.999995 -0.003300
vn 0.000000 0.999995 -0.003300
vn 1.000000 0.000000 0.000260
vn 1.000000 0.000000 0.000260
vn 1.000000 0.000000 0.000260
vn 1.000000 0.000000 0.000260
vn 0.000000 -0.999995 0.003301
vn 0.000000 -0.999995 0.003301
vn 0.000000 -0.999995 0.003301
vn 0.000000 -0.999995 0.003301
vn 0.000000 0.000000 1.000000
vn 0.000000 0.000000 1.000000
vn 0.000000 0.000000 1.000000
vn 0.000000 0.000000 1.000000
vn 0.000000 0.000000 -1.000000
vn 0.000000 0.000000 -1.000000
vn 0.000000 0.000000 -1.000000
vn 0.000000 0.000000 -1.000000
vn 0.000000 -1.000000 0.000000
vn 0.000000 -1.000000 0.000000
vn 0.000000 -1.000000 0.000000
vn 0.000000 -1.000000 0.000000
vn -1.000000 0.000000 0.000000
vn -1.000000 0.000000 0.000000
vn -1.000000 0.000000 0.000000
vn -1.000000 0.000000 0.000000
vn 0.000000 1.000000 0.000000
vn 0.000000 1.000000 0.000000
vn 0.000000 1.000000 0.000000
vn 0.000000 1.000000 0.000000
vn 1.000000 0.000000 0.000000
vn 1.000000 0.000000 0.000000
vn 1.000000 0.000000 0.000000
vn 1.000000 0.000000 0.000000
vn 0.000000 0.000000 1.000000
vn 0.000000 0.000000 1.000000
vn 0.000000 0.000000 1.000000
vn 0.000000 0.000000 1.000000
vn 0.000000 0.000000 -1.000000
vn 0.000000 0.000000 -1.000000
vn 0.000000 0.000000 -1.000000
vn 0.000000 0.000000 -1.000000
s 1
g polySurface6
usemtl phong2SG
f 1/1/1 2/2/2 3/4/3
f 3/4/3 2/2/2 4/3/4
s 2
f 3/5/5 4/6/6 5/8/7
f 5/8/7 4/6/6 6/7/8
s 3
f 5/9/9 6/10/10 7/12/11
f 7/12/11 6/10/10 8/11/12
s 4
f 7/13/13 8/14/14 1/16/15
f 1/16/15 8/14/14 2/15/16
s 5
f 2/17/17 8/18/18 4/20/19
f 4/20/19 8/18/18 6/19/20
s 6
f 7/21/21 1/22/22 5/24/23
f 5/24/23 1/22/22 3/23/24
s 7
f 9/25/25 10/26/26 11/28/27
f 11/28/27 10/26/26 12/27/28
s 8
f 11/29/29 12/30/30 13/32/31
f 13/32/31 12/30/30 14/31/32
s 9
f 13/33/33 14/34/34 15/36/35
f 15/36/35 14/34/34 16/35/36
s 10
f 15/37/37 16/38/38 9/40/39
f 9/40/39 16/38/38 10/39/40
s 11
f 10/41/41 16/42/42 12/44/43
f 12/44/43 16/42/42 14/43/44
s 12
f 15/45/45 9/46/46 13/48/47
f 13/48/47 9/46/46 11/47/48
s 13
f 17/49/49 18/50/50 19/52/51
f 19/52/51 18/50/50 20/51/52
s 14
f 19/53/53 20/54/54 21/56/55
f 21/56/55 20/54/54 22/55/56
s 15
f 22/58/57 24/59/58 21/57/59
f 21/57/59 24/59/58 23/60/60
s 16
f 23/61/61 24/62/62 17/64/63
f 17/64/63 24/62/62 18/63/64
s 17
f 18/65/65 24/66/66 20/68/67
f 20/68/67 24/66/66 22/67/68
s 18
f 23/69/69 17/70/70 21/72/71
f 21/72/71 17/70/70 19/71/72
s 19
f 25/73/73 26/74/74 27/76/75
f 27/76/75 26/74/74 28/75/76
s 20
f 27/77/77 28/78/78 29/80/79
f 29/80/79 28/78/78 30/79/80
s 21
f 29/81/81 30/82/82 31/84/83
f 31/84/83 30/82/82 32/83/84
s 22
f 31/85/85 32/86/86 25/88/87
f 25/88/87 32/86/86 26/87/88
s 23
f 26/89/89 32/90/90 28/92/91
f 28/92/91 32/90/90 30/91/92
s 24
f 31/93/93 25/94/94 29/96/95
f 29/96/95 25/94/94 27/95/96
s 25
f 33/97/97 34/98/98 35/100/99
f 35/100/99 34/98/98 36/99/100
s 26
f 35/101/101 36/102/102 37/104/103
f 37/104/103 36/102/102 38/103/104
s 27
f 38/106/105 40/107/106 37/105/107
f 37/105/107 40/107/106 39/108/108
s 28
f 39/109/109 40/110/110 33/112/111
f 33/112/111 40/110/110 34/111/112
s 29
f 34/113/113 40/114/114 36/116/115
f 36/116/115 40/114/114 38/115/116
s 30
f 39/117/117 33/118/118 37/120/119
f 37/120/119 33/118/118 35/119/120
s 31
f 41/121/121 42/122/122 43/124/123
f 43/124/123 42/122/122 44/123/124
s 32
f 43/125/125 44/126/126 45/128/127
f 45/128/127 44/126/126 46/127/128
s 33
f 45/129/129 46/130/130 47/132/131
f 47/132/131 46/130/130 48/131/132
s 34
f 47/133/133 48/134/134 41/136/135
f 41/136/135 48/134/134 42/135/136
s 35
f 42/137/137 48/138/138 44/140/139
f 44/140/139 48/138/138 46/139/140
s 36
f 47/141/141 41/142/142 45/144/143
f 45/144/143 41/142/142 43/143/144
