# This file uses centimeters as units for non-parametric coordinates.

mtllib Mesa.mtl
g default
v -4.108271 6.153802 7.022349
v 3.963836 6.153802 7.022349
v -4.108271 6.594903 7.022349
v 3.963836 6.594903 7.022349
v -4.108271 6.594903 -7.008294
v 3.963836 6.594903 -7.008294
v -4.108271 6.153802 -7.008294
v 3.963836 6.153802 -7.008294
v 3.912421 -0.108401 -5.110823
v 4.288328 -0.088359 -5.110823
v 2.944314 5.719800 -5.110823
v 3.328222 5.723439 -5.110823
v 2.944314 5.719800 -5.784720
v 3.328222 5.723439 -5.784720
v 3.912421 -0.108401 -5.784720
v 4.288328 -0.088359 -5.784720
v -3.805686 -0.076912 -5.110823
v -3.371729 -0.077211 -5.110823
v -2.895630 5.777210 -5.110823
v -2.461672 5.750244 -5.110823
v -2.895630 5.777210 -5.784720
v -2.461672 5.750244 -5.784720
v -3.805686 -0.076912 -5.784720
v -3.371729 -0.077211 -5.784720
v -3.805686 -0.076912 5.824176
v -3.371729 -0.077211 5.824176
v -2.895630 5.777210 5.824176
v -2.461672 5.750244 5.824176
v -2.895630 5.777210 5.150280
v -2.461672 5.750244 5.150280
v -3.805686 -0.076912 5.150280
v -3.371729 -0.077211 5.150280
v 3.912421 -0.108401 5.824176
v 4.288328 -0.088359 5.824176
v 2.944314 5.719800 5.824176
v 3.328222 5.723439 5.824176
v 2.944314 5.719800 5.150280
v 3.328222 5.723439 5.150280
v 3.912421 -0.108401 5.150280
v 4.288328 -0.088359 5.150280
v -3.812479 5.709279 6.508217
v 3.668044 5.709279 6.508217
v -3.812479 6.150380 6.508217
v 3.668044 6.150380 6.508217
v -3.812479 6.150380 -6.494160
v 3.668044 6.150380 -6.494160
v -3.812479 5.709279 -6.494160
v 3.668044 5.709279 -6.494160
vt 0.000000 0.497074
vt 1.000000 0.497074
vt 0.000000 0.558988
vt 1.000000 0.558988
vt 0.000652 1.002178
vt -0.003715 0.002188
vt 1.000642 0.997812
vt 0.996275 -0.002179
vt 0.000000 0.559093
vt 1.000000 0.559093
vt 0.000000 0.493465
vt 1.000000 0.493465
vt 0.998626 1.001370
vt 1.001370 0.001374
vt -0.001370 0.998626
vt 0.001374 -0.001370
vt 0.000000 0.494237
vt 1.000000 0.494237
vt 0.000000 0.558322
vt 1.000000 0.558322
vt 1.000000 0.496408
vt 0.000000 0.496408
vt 1.000000 0.556150
vt 0.000000 0.556150
vt 0.624161 0.000000
vt 0.624161 1.000000
vt 0.375839 0.000000
vt 0.375839 1.000000
vt 0.000000 0.000000
vt 1.000000 0.000000
vt 0.000000 1.000000
vt 1.000000 1.000000
vt 0.375839 1.000000
vt 0.624161 1.000000
vt 0.375839 0.000000
vt 0.624161 0.000000
vt 0.000000 1.000000
vt 1.000000 1.000000
vt 0.000000 -0.000000
vt 1.000000 -0.000000
vt 0.375839 0.000000
vt 0.624161 0.000000
vt 0.375839 1.000000
vt 0.624161 1.000000
vt 0.624161 0.000000
vt 0.375839 0.000000
vt 0.624161 1.000000
vt 0.375839 1.000000
vt 0.375839 0.000000
vt 0.624161 0.000000
vt 0.375839 1.000000
vt 0.624161 1.000000
vt 0.000000 0.000000
vt 1.000000 0.000000
vt 0.000000 1.000000
vt 1.000000 1.000000
vt 0.624161 1.000000
vt 0.624161 0.000000
vt 0.375839 1.000000
vt 0.375839 0.000000
vt 0.000000 1.000000
vt 1.000000 1.000000
vt 0.000000 -0.000000
vt 1.000000 -0.000000
vt 0.375839 0.000000
vt 0.624161 0.000000
vt 0.375839 1.000000
vt 0.624161 1.000000
vt 0.624161 0.000000
vt 0.375839 0.000000
vt 0.624161 1.000000
vt 0.375839 1.000000
vt 0.375839 0.000000
vt 0.624161 0.000000
vt 0.375839 1.000000
vt 0.624161 1.000000
vt 0.000000 0.000000
vt 1.000000 0.000000
vt 0.000000 1.000000
vt 1.000000 1.000000
vt 0.624161 1.000000
vt 0.624161 0.000000
vt 0.375839 1.000000
vt 0.375839 0.000000
vt 0.000000 1.000000
vt 1.000000 1.000000
vt 0.000000 -0.000000
vt 1.000000 -0.000000
vt 0.375839 0.000000
vt 0.624161 0.000000
vt 0.375839 1.000000
vt 0.624161 1.000000
vt 0.624161 0.000000
vt 0.375839 0.000000
vt 0.624161 1.000000
vt 0.375839 1.000000
vt 0.624161 0.000000
vt 0.624161 1.000000
vt 0.375839 0.000000
vt 0.375839 1.000000
vt 0.000000 0.000000
vt 1.000000 0.000000
vt 0.000000 1.000000
vt 1.000000 1.000000
vt 0.375839 1.000000
vt 0.624161 1.000000
vt 0.375839 0.000000
vt 0.624161 0.000000
vt 0.000000 1.000000
vt 1.000000 1.000000
vt 0.000000 -0.000000
vt 1.000000 -0.000000
vt 0.375839 0.000000
vt 0.624161 0.000000
vt 0.375839 1.000000
vt 0.624161 1.000000
vt 0.624161 0.000000
vt 0.375839 0.000000
vt 0.624161 1.000000
vt 0.375839 1.000000
vt 0.000000 0.497074
vt 1.000000 0.497074
vt 0.000000 0.558988
vt 1.000000 0.558988
vt 0.000652 1.002178
vt -0.003715 0.002188
vt 1.000642 0.997812
vt 0.996275 -0.002179
vt 0.000000 0.559093
vt 1.000000 0.559093
vt 0.000000 0.493465
vt 1.000000 0.493465
vt 0.998626 1.001370
vt 1.001370 0.001374
vt -0.001370 0.998626
vt 0.001374 -0.001370
vt 0.000000 0.494237
vt 1.000000 0.494237
vt 0.000000 0.558322
vt 1.000000 0.558322
vt 1.000000 0.496408
vt 0.000000 0.496408
vt 1.000000 0.556150
vt 0.000000 0.556150
vn 0.000000 0.000000 1.000000
vn 0.000000 0.000000 1.000000
vn 0.000000 0.000000 1.000000
vn 0.000000 0.000000 1.000000
vn 0.000000 0.000000 1.000000
vn 0.000000 0.000000 1.000000
vn 0.000000 1.000000 0.000000
vn 0.000000 1.000000 0.000000
vn 0.000000 1.000000 0.000000
vn 0.000000 1.000000 0.000000
vn 0.000000 1.000000 0.000000
vn 0.000000 1.000000 0.000000
vn 0.000000 0.000000 -1.000000
vn 0.000000 0.000000 -1.000000
vn 0.000000 0.000000 -1.000000
vn 0.000000 0.000000 -1.000000
vn 0.000000 0.000000 -1.000000
vn 0.000000 0.000000 -1.000000
vn 0.000000 -1.000000 0.000000
vn 0.000000 -1.000000 0.000000
vn 0.000000 -1.000000 0.000000
vn 0.000000 -1.000000 0.000000
vn 0.000000 -1.000000 0.000000
vn 0.000000 -1.000000 0.000000
vn 1.000000 0.000000 0.000000
vn 1.000000 0.000000 0.000000
vn 1.000000 0.000000 0.000000
vn 1.000000 0.000000 0.000000
vn 1.000000 0.000000 0.000000
vn 1.000000 0.000000 0.000000
vn -1.000000 0.000000 0.000000
vn -1.000000 0.000000 0.000000
vn -1.000000 0.000000 0.000000
vn -1.000000 0.000000 0.000000
vn -1.000000 0.000000 0.000000
vn -1.000000 0.000000 0.000000
vn -0.000003 0.000000 1.000000
vn 0.000003 0.000000 1.000000
vn -0.000001 0.000000 1.000000
vn -0.000001 0.000000 1.000000
vn 0.000003 0.000000 1.000000
vn 0.000003 0.000000 1.000000
vn -0.009480 0.999955 0.000000
vn -0.009480 0.999955 0.000000
vn -0.009480 0.999955 0.000000
vn -0.009480 0.999955 0.000000
vn -0.009480 0.999955 0.000000
vn -0.009480 0.999955 0.000000
vn -0.000003 0.000000 -1.000000
vn -0.000003 0.000000 -1.000000
vn 0.000003 0.000000 -1.000000
vn 0.000003 0.000000 -1.000000
vn -0.000003 0.000000 -1.000000
vn 0.000003 0.000000 -1.000000
vn 0.053238 -0.998582 0.000000
vn 0.053238 -0.998582 0.000000
vn 0.053238 -0.998582 0.000000
vn 0.053238 -0.998582 0.000000
vn 0.053238 -0.998582 0.000000
vn 0.053238 -0.998582 0.000000
vn 0.986628 0.162990 0.000000
vn 0.986628 0.162990 0.000000
vn 0.986628 0.162990 0.000000
vn 0.986628 0.162990 0.000000
vn 0.986628 0.162990 0.000000
vn 0.986628 0.162990 0.000000
vn -0.986483 -0.163862 0.000000
vn -0.986483 -0.163862 0.000000
vn -0.986483 -0.163862 0.000000
vn -0.986483 -0.163862 0.000000
vn -0.986483 -0.163862 0.000000
vn -0.986483 -0.163862 0.000000
vn -0.000003 0.000000 1.000000
vn -0.000003 0.000000 1.000000
vn 0.000001 0.000000 1.000000
vn 0.000001 0.000000 1.000000
vn -0.000003 0.000000 1.000000
vn 0.000003 0.000000 1.000000
vn 0.062020 0.998075 0.000000
vn 0.062020 0.998075 0.000000
vn 0.062020 0.998075 0.000000
vn 0.062020 0.998075 0.000000
vn 0.062020 0.998075 0.000000
vn 0.062020 0.998075 0.000000
vn 0.000001 0.000000 -1.000000
vn 0.000000 0.000000 -1.000000
vn 0.000001 0.000000 -1.000000
vn 0.000001 0.000000 -1.000000
vn 0.000000 0.000000 -1.000000
vn 0.000000 0.000000 -1.000000
vn -0.000685 -1.000000 0.000000
vn -0.000685 -1.000000 0.000000
vn -0.000685 -1.000000 0.000000
vn -0.000685 -1.000000 0.000000
vn -0.000685 -1.000000 0.000000
vn -0.000685 -1.000000 0.000000
vn 0.988024 -0.154297 0.000000
vn 0.988024 -0.154297 0.000000
vn 0.988025 -0.154297 0.000000
vn 0.988025 -0.154297 0.000000
vn 0.988024 -0.154297 0.000000
vn 0.988025 -0.154297 0.000000
vn -0.988131 0.153611 0.000000
vn -0.988131 0.153611 0.000000
vn -0.988131 0.153611 0.000000
vn -0.988131 0.153611 0.000000
vn -0.988131 0.153611 0.000000
vn -0.988131 0.153611 0.000000
vn 0.000000 0.000000 1.000000
vn 0.000000 0.000000 1.000000
vn 0.000000 0.000000 1.000000
vn 0.000000 0.000000 1.000000
vn 0.000000 0.000000 1.000000
vn 0.000000 0.000000 1.000000
vn 0.062020 0.998075 0.000000
vn 0.062020 0.998075 0.000000
vn 0.062020 0.998075 0.000000
vn 0.062020 0.998075 0.000000
vn 0.062020 0.998075 0.000000
vn 0.062020 0.998075 0.000000
vn -0.000000 0.000000 -1.000000
vn -0.000000 0.000000 -1.000000
vn -0.000000 0.000000 -1.000000
vn -0.000000 0.000000 -1.000000
vn -0.000000 0.000000 -1.000000
vn 0.000000 0.000000 -1.000000
vn -0.000685 -1.000000 0.000000
vn -0.000685 -1.000000 0.000000
vn -0.000685 -1.000000 0.000000
vn -0.000685 -1.000000 0.000000
vn -0.000685 -1.000000 0.000000
vn -0.000685 -1.000000 0.000000
vn 0.988025 -0.154297 0.000000
vn 0.988025 -0.154297 0.000000
vn 0.988025 -0.154297 0.000000
vn 0.988025 -0.154297 0.000000
vn 0.988025 -0.154297 0.000000
vn 0.988025 -0.154297 0.000000
vn -0.988131 0.153611 0.000000
vn -0.988131 0.153611 0.000000
vn -0.988131 0.153611 0.000000
vn -0.988131 0.153611 0.000000
vn -0.988131 0.153611 0.000000
vn -0.988131 0.153611 0.000000
vn 0.000001 0.000000 1.000000
vn -0.000001 0.000000 1.000000
vn 0.000001 0.000000 1.000000
vn 0.000001 0.000000 1.000000
vn -0.000001 0.000000 1.000000
vn -0.000001 0.000000 1.000000
vn -0.009480 0.999955 0.000000
vn -0.009480 0.999955 0.000000
vn -0.009480 0.999955 0.000000
vn -0.009480 0.999955 0.000000
vn -0.009480 0.999955 0.000000
vn -0.009480 0.999955 0.000000
vn 0.000000 0.000000 -1.000000
vn 0.000000 0.000000 -1.000000
vn -0.000000 0.000000 -1.000000
vn -0.000000 0.000000 -1.000000
vn 0.000000 0.000000 -1.000000
vn -0.000000 0.000000 -1.000000
vn 0.053238 -0.998582 0.000000
vn 0.053238 -0.998582 0.000000
vn 0.053238 -0.998582 0.000000
vn 0.053238 -0.998582 0.000000
vn 0.053238 -0.998582 0.000000
vn 0.053238 -0.998582 0.000000
vn 0.986628 0.162990 0.000000
vn 0.986628 0.162990 0.000000
vn 0.986628 0.162990 0.000000
vn 0.986628 0.162990 0.000000
vn 0.986628 0.162990 0.000000
vn 0.986628 0.162990 0.000000
vn -0.986483 -0.163862 0.000000
vn -0.986483 -0.163862 0.000000
vn -0.986483 -0.163862 0.000000
vn -0.986483 -0.163862 0.000000
vn -0.986483 -0.163862 0.000000
vn -0.986483 -0.163862 0.000000
vn 0.000000 0.000000 1.000000
vn 0.000000 0.000000 1.000000
vn 0.000000 0.000000 1.000000
vn 0.000000 0.000000 1.000000
vn 0.000000 0.000000 1.000000
vn 0.000000 0.000000 1.000000
vn 0.000000 1.000000 0.000000
vn 0.000000 1.000000 0.000000
vn 0.000000 1.000000 0.000000
vn 0.000000 1.000000 0.000000
vn 0.000000 1.000000 0.000000
vn 0.000000 1.000000 0.000000
vn 0.000000 0.000000 -1.000000
vn 0.000000 0.000000 -1.000000
vn 0.000000 0.000000 -1.000000
vn 0.000000 0.000000 -1.000000
vn 0.000000 0.000000 -1.000000
vn 0.000000 0.000000 -1.000000
vn 0.000000 -1.000000 0.000000
vn 0.000000 -1.000000 0.000000
vn 0.000000 -1.000000 0.000000
vn 0.000000 -1.000000 0.000000
vn 0.000000 -1.000000 0.000000
vn 0.000000 -1.000000 0.000000
vn 1.000000 0.000000 0.000000
vn 1.000000 0.000000 0.000000
vn 1.000000 0.000000 0.000000
vn 1.000000 0.000000 0.000000
vn 1.000000 0.000000 0.000000
vn 1.000000 0.000000 0.000000
vn -1.000000 0.000000 0.000000
vn -1.000000 0.000000 0.000000
vn -1.000000 0.000000 0.000000
vn -1.000000 0.000000 0.000000
vn -1.000000 0.000000 0.000000
vn -1.000000 0.000000 0.000000
s off
g Mesa:pCube15
usemtl Mesa:phong2SG
f 1/1/1 2/2/2 3/3/3
f 3/3/4 2/2/5 4/4/6
f 3/5/7 4/6/8 5/7/9
f 5/7/10 4/6/11 6/8/12
f 5/9/13 6/10/14 7/11/15
f 7/11/16 6/10/17 8/12/18
f 7/13/19 8/14/20 1/15/21
f 1/15/22 8/14/23 2/16/24
f 2/17/25 8/18/26 4/19/27
f 4/19/28 8/18/29 6/20/30
f 7/21/31 1/22/32 5/23/33
f 5/23/34 1/22/35 3/24/36
f 10/25/37 12/26/38 9/27/39
f 9/27/40 12/26/41 11/28/42
f 11/29/43 12/30/44 13/31/45
f 13/31/46 12/30/47 14/32/48
f 13/33/49 14/34/50 15/35/51
f 15/35/52 14/34/53 16/36/54
f 15/37/55 16/38/56 9/39/57
f 9/39/58 16/38/59 10/40/60
f 10/41/61 16/42/62 12/43/63
f 12/43/64 16/42/65 14/44/66
f 15/45/67 9/46/68 13/47/69
f 13/47/70 9/46/71 11/48/72
f 17/49/73 18/50/74 19/51/75
f 19/51/76 18/50/77 20/52/78
f 19/53/79 20/54/80 21/55/81
f 21/55/82 20/54/83 22/56/84
f 22/57/85 24/58/86 21/59/87
f 21/59/88 24/58/89 23/60/90
f 23/61/91 24/62/92 17/63/93
f 17/63/94 24/62/95 18/64/96
f 18/65/97 24/66/98 20/67/99
f 20/67/100 24/66/101 22/68/102
f 23/69/103 17/70/104 21/71/105
f 21/71/106 17/70/107 19/72/108
f 25/73/109 26/74/110 27/75/111
f 27/75/112 26/74/113 28/76/114
f 27/77/115 28/78/116 29/79/117
f 29/79/118 28/78/119 30/80/120
f 30/81/121 32/82/122 29/83/123
f 29/83/124 32/82/125 31/84/126
f 31/85/127 32/86/128 25/87/129
f 25/87/130 32/86/131 26/88/132
f 26/89/133 32/90/134 28/91/135
f 28/91/136 32/90/137 30/92/138
f 31/93/139 25/94/140 29/95/141
f 29/95/142 25/94/143 27/96/144
f 34/97/145 36/98/146 33/99/147
f 33/99/148 36/98/149 35/100/150
f 35/101/151 36/102/152 37/103/153
f 37/103/154 36/102/155 38/104/156
f 37/105/157 38/106/158 39/107/159
f 39/107/160 38/106/161 40/108/162
f 39/109/163 40/110/164 33/111/165
f 33/111/166 40/110/167 34/112/168
f 34/113/169 40/114/170 36/115/171
f 36/115/172 40/114/173 38/116/174
f 39/117/175 33/118/176 37/119/177
f 37/119/178 33/118/179 35/120/180
f 41/121/181 42/122/182 43/123/183
f 43/123/184 42/122/185 44/124/186
f 43/125/187 44/126/188 45/127/189
f 45/127/190 44/126/191 46/128/192
f 45/129/193 46/130/194 47/131/195
f 47/131/196 46/130/197 48/132/198
f 47/133/199 48/134/200 41/135/201
f 41/135/202 48/134/203 42/136/204
f 42/137/205 48/138/206 44/139/207
f 44/139/208 48/138/209 46/140/210
f 47/141/211 41/142/212 45/143/213
f 45/143/214 41/142/215 43/144/216
