# This file uses centimeters as units for non-parametric coordinates.

mtllib Pasto.mtl
g default
v -82.598384 0.000000 87.204979
v -66.078707 0.000000 87.204979
v -49.559038 0.000000 87.204979
v -33.039353 0.000000 87.204979
v -16.519677 0.000000 87.204979
v 0.000000 0.000000 87.204979
v 16.519682 0.000000 87.204979
v 33.039353 0.000000 87.204979
v 49.559038 0.000000 87.204979
v 66.078722 0.000000 87.204979
v 82.598384 0.000000 87.204979
v -82.598384 0.000000 69.389214
v -66.078707 0.000000 69.389214
v -49.559038 0.000000 69.389214
v -33.039353 0.000000 69.389214
v -16.519677 0.000000 69.389214
v 0.000000 0.000000 69.389214
v 16.519682 0.000000 69.389214
v 33.039353 0.000000 69.389214
v 49.559038 0.000000 69.389214
v 66.078722 0.000000 69.389214
v 82.598384 0.000000 69.389214
v -82.598384 0.000000 51.573433
v -66.078707 0.000000 51.573433
v -49.559038 0.000000 51.573433
v -33.039353 0.000000 51.573433
v -16.519677 0.000000 51.573433
v 0.000000 0.000000 51.573433
v 16.519682 0.000000 51.573433
v 33.039353 0.000000 51.573433
v 49.559038 0.000000 51.573433
v 66.078722 0.000000 51.573433
v 82.598384 0.000000 51.573433
v -82.598384 0.000000 33.757656
v -66.078707 0.000000 33.757656
v -49.559038 0.000000 33.757656
v -33.039353 0.000000 33.757656
v -16.519677 0.000000 33.757656
v 0.000000 0.000000 33.757656
v 16.519682 0.000000 33.757656
v 33.039353 0.000000 33.757656
v 49.559038 0.000000 33.757656
v 66.078722 0.000000 33.757656
v 82.598384 0.000000 33.757656
v -82.598384 0.000000 15.941884
v -66.078707 0.000000 15.941884
v -49.559038 0.000000 15.941884
v -33.039353 0.000000 15.941884
v -16.519677 0.000000 15.941884
v 0.000000 0.000000 15.941884
v 16.519682 0.000000 15.941884
v 33.039353 0.000000 15.941884
v 49.559038 0.000000 15.941884
v 66.078722 0.000000 15.941884
v 82.598384 0.000000 15.941884
v -82.598384 0.000000 -1.873890
v -66.078707 0.000000 -1.873890
v -49.559038 0.000000 -1.873890
v -33.039353 0.000000 -1.873890
v -16.519677 0.000000 -1.873890
v 16.519682 0.000000 -1.873890
v 33.039353 0.000000 -1.873890
v 49.559038 0.000000 -1.873890
v 66.078722 0.000000 -1.873890
v 82.598384 0.000000 -1.873890
v -82.598384 0.000000 -19.689669
v -66.078707 0.000000 -19.689669
v -49.559038 0.000000 -19.689669
v -33.039353 0.000000 -19.689669
v -16.519677 0.000000 -19.689669
v 0.000000 0.000000 -19.689669
v 16.519682 0.000000 -19.689669
v 33.039353 0.000000 -19.689669
v 49.559038 0.000000 -19.689669
v 66.078722 0.000000 -19.689669
v 82.598384 0.000000 -19.689669
v -82.598384 0.000000 -37.505436
v -66.078707 0.000000 -37.505436
v -49.559038 0.000000 -37.505436
v -33.039353 0.000000 -37.505436
v -16.519677 0.000000 -37.505436
v 0.000000 0.000000 -37.505436
v 16.519682 0.000000 -37.505436
v 33.039353 0.000000 -37.505436
v 49.559038 0.000000 -37.505436
v 66.078722 0.000000 -37.505436
v 82.598384 0.000000 -37.505436
v -82.598384 0.000000 -55.321213
v -66.078707 0.000000 -55.321213
v -49.559038 0.000000 -55.321213
v -33.039353 0.000000 -55.321213
v -16.519677 0.000000 -55.321213
v 0.000000 0.000000 -55.321213
v 16.519682 0.000000 -55.321213
v 33.039353 0.000000 -55.321213
v 49.559038 0.000000 -55.321213
v 66.078722 0.000000 -55.321213
v 82.598384 0.000000 -55.321213
v -82.598384 0.000000 -73.136986
v -66.078707 0.000000 -73.136986
v -49.559038 0.000000 -73.136986
v -33.039353 0.000000 -73.136986
v -16.519677 0.000000 -73.136986
v 0.000000 0.000000 -73.136986
v 16.519682 0.000000 -73.136986
v 33.039353 0.000000 -73.136986
v 49.559038 0.000000 -73.136986
v 66.078722 0.000000 -73.136986
v 82.598384 0.000000 -73.136986
v -82.598384 0.000000 -90.952759
v -66.078707 0.000000 -90.952759
v -49.559038 0.000000 -90.952759
v -33.039353 0.000000 -90.952759
v -16.519677 0.000000 -90.952759
v 0.000000 0.000000 -90.952759
v 16.519682 0.000000 -90.952759
v 33.039353 0.000000 -90.952759
v 49.559038 0.000000 -90.952759
v 66.078722 0.000000 -90.952759
v 82.598384 0.000000 -90.952759
vt -2.002780 -2.002780
vt -1.502225 -2.002780
vt -1.502225 -1.502225
vt -2.002780 -1.502225
vt -1.001668 -2.002780
vt -1.001668 -1.502225
vt -0.501112 -2.002780
vt -0.501112 -1.502225
vt -0.000556 -2.002780
vt -0.000556 -1.502225
vt 0.500000 -2.002780
vt 0.500000 -1.502225
vt 1.000556 -2.002780
vt 1.000556 -1.502225
vt 1.501113 -2.002780
vt 1.501113 -1.502225
vt 2.001669 -2.002780
vt 2.001669 -1.502225
vt 2.502225 -2.002780
vt 2.502225 -1.502225
vt 3.002781 -2.002780
vt 3.002781 -1.502225
vt -1.502225 -1.001668
vt -2.002780 -1.001668
vt -1.001668 -1.001668
vt -0.501112 -1.001668
vt -0.000556 -1.001668
vt 0.500000 -1.001668
vt 1.000556 -1.001668
vt 1.501113 -1.001668
vt 2.001669 -1.001668
vt 2.502225 -1.001668
vt 3.002781 -1.001668
vt -1.502225 -0.501112
vt -2.002780 -0.501112
vt -1.001668 -0.501112
vt -0.501112 -0.501112
vt -0.000556 -0.501112
vt 0.500000 -0.501112
vt 1.000556 -0.501112
vt 1.501113 -0.501112
vt 2.001669 -0.501112
vt 2.502225 -0.501112
vt 3.002781 -0.501112
vt -1.502225 -0.000556
vt -2.002780 -0.000556
vt -1.001668 -0.000556
vt -0.501112 -0.000556
vt -0.000556 -0.000556
vt 0.500000 -0.000556
vt 1.000556 -0.000556
vt 1.501113 -0.000556
vt 2.001669 -0.000556
vt 2.502225 -0.000556
vt 3.002781 -0.000556
vt -1.502225 0.500000
vt -2.002780 0.500000
vt -1.001668 0.500000
vt -0.501112 0.500000
vt -0.000556 0.500000
vt 1.501113 0.500000
vt 1.000556 0.500000
vt 2.001669 0.500000
vt 2.502225 0.500000
vt 3.002781 0.500000
vt -1.502225 1.000556
vt -2.002780 1.000556
vt -1.001668 1.000556
vt -0.501112 1.000556
vt -0.000556 1.000556
vt 1.501113 1.000556
vt 1.000556 1.000556
vt 2.001669 1.000556
vt 2.502225 1.000556
vt 3.002781 1.000556
vt -1.502225 1.501113
vt -2.002780 1.501113
vt -1.001668 1.501113
vt -0.501112 1.501113
vt -0.000556 1.501113
vt 0.500000 1.000556
vt 0.500000 1.501113
vt 1.000556 1.501113
vt 1.501113 1.501113
vt 2.001669 1.501113
vt 2.502225 1.501113
vt 3.002781 1.501113
vt -1.502225 2.001668
vt -2.002780 2.001668
vt -1.001668 2.001668
vt -0.501112 2.001668
vt -0.000556 2.001668
vt 0.500000 2.001668
vt 1.000556 2.001668
vt 1.501113 2.001668
vt 2.001669 2.001668
vt 2.502225 2.001668
vt 3.002781 2.001668
vt -1.502225 2.502224
vt -2.002780 2.502224
vt -1.001668 2.502224
vt -0.501112 2.502224
vt -0.000556 2.502224
vt 0.500000 2.502224
vt 1.000556 2.502224
vt 1.501113 2.502224
vt 2.001669 2.502224
vt 2.502225 2.502224
vt 3.002781 2.502224
vt -1.502225 3.002780
vt -2.002780 3.002780
vt -1.001668 3.002780
vt -0.501112 3.002780
vt -0.000556 3.002780
vt 0.500000 3.002780
vt 1.000556 3.002780
vt 1.501113 3.002780
vt 2.001669 3.002780
vt 2.502225 3.002780
vt 3.002781 3.002780
vn 0.000000 1.000000 0.000000
vn 0.000000 1.000000 0.000000
vn 0.000000 1.000000 0.000000
vn 0.000000 1.000000 0.000000
vn 0.000000 1.000000 0.000000
vn 0.000000 1.000000 0.000000
vn 0.000000 1.000000 0.000000
vn 0.000000 1.000000 0.000000
vn 0.000000 1.000000 0.000000
vn 0.000000 1.000000 0.000000
vn 0.000000 1.000000 0.000000
vn 0.000000 1.000000 0.000000
vn 0.000000 1.000000 0.000000
vn 0.000000 1.000000 0.000000
vn 0.000000 1.000000 0.000000
vn 0.000000 1.000000 0.000000
vn 0.000000 1.000000 0.000000
vn 0.000000 1.000000 0.000000
vn 0.000000 1.000000 0.000000
vn 0.000000 1.000000 0.000000
vn 0.000000 1.000000 0.000000
vn 0.000000 1.000000 0.000000
vn 0.000000 1.000000 0.000000
vn 0.000000 1.000000 0.000000
vn 0.000000 1.000000 0.000000
vn 0.000000 1.000000 0.000000
vn 0.000000 1.000000 0.000000
vn 0.000000 1.000000 0.000000
vn 0.000000 1.000000 0.000000
vn 0.000000 1.000000 0.000000
vn 0.000000 1.000000 0.000000
vn 0.000000 1.000000 0.000000
vn 0.000000 1.000000 0.000000
vn 0.000000 1.000000 0.000000
vn 0.000000 1.000000 0.000000
vn 0.000000 1.000000 0.000000
vn 0.000000 1.000000 0.000000
vn 0.000000 1.000000 0.000000
vn 0.000000 1.000000 0.000000
vn 0.000000 1.000000 0.000000
vn 0.000000 1.000000 0.000000
vn 0.000000 1.000000 0.000000
vn 0.000000 1.000000 0.000000
vn 0.000000 1.000000 0.000000
vn 0.000000 1.000000 0.000000
vn 0.000000 1.000000 0.000000
vn 0.000000 1.000000 0.000000
vn 0.000000 1.000000 0.000000
vn 0.000000 1.000000 0.000000
vn 0.000000 1.000000 0.000000
vn 0.000000 1.000000 0.000000
vn 0.000000 1.000000 0.000000
vn 0.000000 1.000000 0.000000
vn 0.000000 1.000000 0.000000
vn 0.000000 1.000000 0.000000
vn 0.000000 1.000000 0.000000
vn 0.000000 1.000000 0.000000
vn 0.000000 1.000000 0.000000
vn 0.000000 1.000000 0.000000
vn 0.000000 1.000000 0.000000
vn 0.000000 1.000000 0.000000
vn 0.000000 1.000000 0.000000
vn 0.000000 1.000000 0.000000
vn 0.000000 1.000000 0.000000
vn 0.000000 1.000000 0.000000
vn 0.000000 1.000000 0.000000
vn 0.000000 1.000000 0.000000
vn 0.000000 1.000000 0.000000
vn 0.000000 1.000000 0.000000
vn 0.000000 1.000000 0.000000
vn 0.000000 1.000000 0.000000
vn 0.000000 1.000000 0.000000
vn 0.000000 1.000000 0.000000
vn 0.000000 1.000000 0.000000
vn 0.000000 1.000000 0.000000
vn 0.000000 1.000000 0.000000
vn 0.000000 1.000000 0.000000
vn 0.000000 1.000000 0.000000
vn 0.000000 1.000000 0.000000
vn 0.000000 1.000000 0.000000
vn 0.000000 1.000000 0.000000
vn 0.000000 1.000000 0.000000
vn 0.000000 1.000000 0.000000
vn 0.000000 1.000000 0.000000
vn 0.000000 1.000000 0.000000
vn 0.000000 1.000000 0.000000
vn 0.000000 1.000000 0.000000
vn 0.000000 1.000000 0.000000
vn 0.000000 1.000000 0.000000
vn 0.000000 1.000000 0.000000
vn 0.000000 1.000000 0.000000
vn 0.000000 1.000000 0.000000
vn 0.000000 1.000000 0.000000
vn 0.000000 1.000000 0.000000
vn 0.000000 1.000000 0.000000
vn 0.000000 1.000000 0.000000
vn 0.000000 1.000000 0.000000
vn 0.000000 1.000000 0.000000
vn 0.000000 1.000000 0.000000
vn 0.000000 1.000000 0.000000
vn 0.000000 1.000000 0.000000
vn 0.000000 1.000000 0.000000
vn 0.000000 1.000000 0.000000
vn 0.000000 1.000000 0.000000
vn 0.000000 1.000000 0.000000
vn 0.000000 1.000000 0.000000
vn 0.000000 1.000000 0.000000
vn 0.000000 1.000000 0.000000
vn 0.000000 1.000000 0.000000
vn 0.000000 1.000000 0.000000
vn 0.000000 1.000000 0.000000
vn 0.000000 1.000000 0.000000
vn 0.000000 1.000000 0.000000
vn 0.000000 1.000000 0.000000
vn 0.000000 1.000000 0.000000
vn 0.000000 1.000000 0.000000
vn 0.000000 1.000000 0.000000
vn 0.000000 1.000000 0.000000
vn 0.000000 1.000000 0.000000
vn 0.000000 1.000000 0.000000
vn 0.000000 1.000000 0.000000
vn 0.000000 1.000000 0.000000
vn 0.000000 1.000000 0.000000
vn 0.000000 1.000000 0.000000
vn 0.000000 1.000000 0.000000
vn 0.000000 1.000000 0.000000
vn 0.000000 1.000000 0.000000
vn 0.000000 1.000000 0.000000
vn 0.000000 1.000000 0.000000
vn 0.000000 1.000000 0.000000
vn 0.000000 1.000000 0.000000
vn 0.000000 1.000000 0.000000
vn 0.000000 1.000000 0.000000
vn 0.000000 1.000000 0.000000
vn 0.000000 1.000000 0.000000
vn 0.000000 1.000000 0.000000
vn 0.000000 1.000000 0.000000
vn 0.000000 1.000000 0.000000
vn 0.000000 1.000000 0.000000
vn 0.000000 1.000000 0.000000
vn 0.000000 1.000000 0.000000
vn 0.000000 1.000000 0.000000
vn 0.000000 1.000000 0.000000
vn 0.000000 1.000000 0.000000
vn 0.000000 1.000000 0.000000
vn 0.000000 1.000000 0.000000
vn 0.000000 1.000000 0.000000
vn 0.000000 1.000000 0.000000
vn 0.000000 1.000000 0.000000
vn 0.000000 1.000000 0.000000
vn 0.000000 1.000000 0.000000
vn 0.000000 1.000000 0.000000
vn 0.000000 1.000000 0.000000
vn 0.000000 1.000000 0.000000
vn 0.000000 1.000000 0.000000
vn 0.000000 1.000000 0.000000
vn 0.000000 1.000000 0.000000
vn 0.000000 1.000000 0.000000
vn 0.000000 1.000000 0.000000
vn 0.000000 1.000000 0.000000
vn 0.000000 1.000000 0.000000
vn 0.000000 1.000000 0.000000
vn 0.000000 1.000000 0.000000
vn 0.000000 1.000000 0.000000
vn 0.000000 1.000000 0.000000
vn 0.000000 1.000000 0.000000
vn 0.000000 1.000000 0.000000
vn 0.000000 1.000000 0.000000
vn 0.000000 1.000000 0.000000
vn 0.000000 1.000000 0.000000
vn 0.000000 1.000000 0.000000
vn 0.000000 1.000000 0.000000
vn 0.000000 1.000000 0.000000
vn 0.000000 1.000000 0.000000
vn 0.000000 1.000000 0.000000
vn 0.000000 1.000000 0.000000
vn 0.000000 1.000000 0.000000
vn 0.000000 1.000000 0.000000
vn 0.000000 1.000000 0.000000
vn 0.000000 1.000000 0.000000
vn 0.000000 1.000000 0.000000
vn 0.000000 1.000000 0.000000
vn 0.000000 1.000000 0.000000
vn 0.000000 1.000000 0.000000
vn 0.000000 1.000000 0.000000
vn 0.000000 1.000000 0.000000
vn 0.000000 1.000000 0.000000
vn 0.000000 1.000000 0.000000
vn 0.000000 1.000000 0.000000
vn 0.000000 1.000000 0.000000
vn 0.000000 1.000000 0.000000
vn 0.000000 1.000000 0.000000
vn 0.000000 1.000000 0.000000
vn 0.000000 1.000000 0.000000
vn 0.000000 1.000000 0.000000
vn 0.000000 1.000000 0.000000
vn 0.000000 1.000000 0.000000
vn 0.000000 1.000000 0.000000
vn 0.000000 1.000000 0.000000
vn 0.000000 1.000000 0.000000
vn 0.000000 1.000000 0.000000
vn 0.000000 1.000000 0.000000
vn 0.000000 1.000000 0.000000
vn 0.000000 1.000000 0.000000
vn 0.000000 1.000000 0.000000
vn 0.000000 1.000000 0.000000
vn 0.000000 1.000000 0.000000
vn 0.000000 1.000000 0.000000
vn 0.000000 1.000000 0.000000
vn 0.000000 1.000000 0.000000
vn 0.000000 1.000000 0.000000
vn 0.000000 1.000000 0.000000
vn 0.000000 1.000000 0.000000
vn 0.000000 1.000000 0.000000
vn 0.000000 1.000000 0.000000
vn 0.000000 1.000000 0.000000
vn 0.000000 1.000000 0.000000
vn 0.000000 1.000000 0.000000
vn 0.000000 1.000000 0.000000
vn 0.000000 1.000000 0.000000
vn 0.000000 1.000000 0.000000
vn 0.000000 1.000000 0.000000
vn 0.000000 1.000000 0.000000
vn 0.000000 1.000000 0.000000
vn 0.000000 1.000000 0.000000
vn 0.000000 1.000000 0.000000
vn 0.000000 1.000000 0.000000
vn 0.000000 1.000000 0.000000
vn 0.000000 1.000000 0.000000
vn 0.000000 1.000000 0.000000
vn 0.000000 1.000000 0.000000
vn 0.000000 1.000000 0.000000
vn 0.000000 1.000000 0.000000
vn 0.000000 1.000000 0.000000
vn 0.000000 1.000000 0.000000
vn 0.000000 1.000000 0.000000
vn 0.000000 1.000000 0.000000
vn 0.000000 1.000000 0.000000
vn 0.000000 1.000000 0.000000
vn 0.000000 1.000000 0.000000
vn 0.000000 1.000000 0.000000
vn 0.000000 1.000000 0.000000
vn 0.000000 1.000000 0.000000
vn 0.000000 1.000000 0.000000
vn 0.000000 1.000000 0.000000
vn 0.000000 1.000000 0.000000
vn 0.000000 1.000000 0.000000
vn 0.000000 1.000000 0.000000
vn 0.000000 1.000000 0.000000
vn 0.000000 1.000000 0.000000
vn 0.000000 1.000000 0.000000
vn 0.000000 1.000000 0.000000
vn 0.000000 1.000000 0.000000
vn 0.000000 1.000000 0.000000
vn 0.000000 1.000000 0.000000
vn 0.000000 1.000000 0.000000
vn 0.000000 1.000000 0.000000
vn 0.000000 1.000000 0.000000
vn 0.000000 1.000000 0.000000
vn 0.000000 1.000000 0.000000
vn 0.000000 1.000000 0.000000
vn 0.000000 1.000000 0.000000
vn 0.000000 1.000000 0.000000
vn 0.000000 1.000000 0.000000
vn 0.000000 1.000000 0.000000
vn 0.000000 1.000000 0.000000
vn 0.000000 1.000000 0.000000
vn 0.000000 1.000000 0.000000
vn 0.000000 1.000000 0.000000
vn 0.000000 1.000000 0.000000
vn 0.000000 1.000000 0.000000
vn 0.000000 1.000000 0.000000
vn 0.000000 1.000000 0.000000
vn 0.000000 1.000000 0.000000
vn 0.000000 1.000000 0.000000
vn 0.000000 1.000000 0.000000
vn 0.000000 1.000000 0.000000
vn 0.000000 1.000000 0.000000
vn 0.000000 1.000000 0.000000
vn 0.000000 1.000000 0.000000
vn 0.000000 1.000000 0.000000
vn 0.000000 1.000000 0.000000
vn 0.000000 1.000000 0.000000
vn 0.000000 1.000000 0.000000
vn 0.000000 1.000000 0.000000
vn 0.000000 1.000000 0.000000
vn 0.000000 1.000000 0.000000
vn 0.000000 1.000000 0.000000
vn 0.000000 1.000000 0.000000
vn 0.000000 1.000000 0.000000
vn 0.000000 1.000000 0.000000
vn 0.000000 1.000000 0.000000
vn 0.000000 1.000000 0.000000
vn 0.000000 1.000000 0.000000
vn 0.000000 1.000000 0.000000
vn 0.000000 1.000000 0.000000
vn 0.000000 1.000000 0.000000
vn 0.000000 1.000000 0.000000
vn 0.000000 1.000000 0.000000
vn 0.000000 1.000000 0.000000
vn 0.000000 1.000000 0.000000
vn 0.000000 1.000000 0.000000
vn 0.000000 1.000000 0.000000
vn 0.000000 1.000000 0.000000
vn 0.000000 1.000000 0.000000
vn 0.000000 1.000000 0.000000
vn 0.000000 1.000000 0.000000
vn 0.000000 1.000000 0.000000
vn 0.000000 1.000000 0.000000
vn 0.000000 1.000000 0.000000
vn 0.000000 1.000000 0.000000
vn 0.000000 1.000000 0.000000
vn 0.000000 1.000000 0.000000
vn 0.000000 1.000000 0.000000
vn 0.000000 1.000000 0.000000
vn 0.000000 1.000000 0.000000
vn 0.000000 1.000000 0.000000
vn 0.000000 1.000000 0.000000
vn 0.000000 1.000000 0.000000
vn 0.000000 1.000000 0.000000
vn 0.000000 1.000000 0.000000
vn 0.000000 1.000000 0.000000
vn 0.000000 1.000000 0.000000
vn 0.000000 1.000000 0.000000
vn 0.000000 1.000000 0.000000
vn 0.000000 1.000000 0.000000
vn 0.000000 1.000000 0.000000
vn 0.000000 1.000000 0.000000
vn 0.000000 1.000000 0.000000
vn 0.000000 1.000000 0.000000
vn 0.000000 1.000000 0.000000
vn 0.000000 1.000000 0.000000
vn 0.000000 1.000000 0.000000
vn 0.000000 1.000000 0.000000
vn 0.000000 1.000000 0.000000
vn 0.000000 1.000000 0.000000
vn 0.000000 1.000000 0.000000
vn 0.000000 1.000000 0.000000
vn 0.000000 1.000000 0.000000
vn 0.000000 1.000000 0.000000
vn 0.000000 1.000000 0.000000
vn 0.000000 1.000000 0.000000
vn 0.000000 1.000000 0.000000
vn 0.000000 1.000000 0.000000
vn 0.000000 1.000000 0.000000
vn 0.000000 1.000000 0.000000
vn 0.000000 1.000000 0.000000
vn 0.000000 1.000000 0.000000
vn 0.000000 1.000000 0.000000
vn 0.000000 1.000000 0.000000
vn 0.000000 1.000000 0.000000
vn 0.000000 1.000000 0.000000
vn 0.000000 1.000000 0.000000
vn 0.000000 1.000000 0.000000
vn 0.000000 1.000000 0.000000
vn 0.000000 1.000000 0.000000
vn 0.000000 1.000000 0.000000
vn 0.000000 1.000000 0.000000
vn 0.000000 1.000000 0.000000
vn 0.000000 1.000000 0.000000
vn 0.000000 1.000000 0.000000
vn 0.000000 1.000000 0.000000
vn 0.000000 1.000000 0.000000
vn 0.000000 1.000000 0.000000
vn 0.000000 1.000000 0.000000
vn 0.000000 1.000000 0.000000
vn 0.000000 1.000000 0.000000
vn 0.000000 1.000000 0.000000
vn 0.000000 1.000000 0.000000
vn 0.000000 1.000000 0.000000
vn 0.000000 1.000000 0.000000
vn 0.000000 1.000000 0.000000
vn 0.000000 1.000000 0.000000
vn 0.000000 1.000000 0.000000
vn 0.000000 1.000000 0.000000
vn 0.000000 1.000000 0.000000
vn 0.000000 1.000000 0.000000
vn 0.000000 1.000000 0.000000
vn 0.000000 1.000000 0.000000
vn 0.000000 1.000000 0.000000
vn 0.000000 1.000000 0.000000
vn 0.000000 1.000000 0.000000
vn 0.000000 1.000000 0.000000
vn 0.000000 1.000000 0.000000
s off
g Pasto:pPlane1
usemtl Pasto:phong3SG
f 1/1/1 2/2/2 13/3/3 12/4/4
f 2/2/5 3/5/6 14/6/7 13/3/8
f 3/5/9 4/7/10 15/8/11 14/6/12
f 4/7/13 5/9/14 16/10/15 15/8/16
f 5/9/17 6/11/18 17/12/19 16/10/20
f 6/11/21 7/13/22 18/14/23 17/12/24
f 7/13/25 8/15/26 19/16/27 18/14/28
f 8/15/29 9/17/30 20/18/31 19/16/32
f 9/17/33 10/19/34 21/20/35 20/18/36
f 10/19/37 11/21/38 22/22/39 21/20/40
f 12/4/41 13/3/42 24/23/43 23/24/44
f 13/3/45 14/6/46 25/25/47 24/23/48
f 14/6/49 15/8/50 26/26/51 25/25/52
f 15/8/53 16/10/54 27/27/55 26/26/56
f 16/10/57 17/12/58 28/28/59 27/27/60
f 17/12/61 18/14/62 29/29/63 28/28/64
f 18/14/65 19/16/66 30/30/67 29/29/68
f 19/16/69 20/18/70 31/31/71 30/30/72
f 20/18/73 21/20/74 32/32/75 31/31/76
f 21/20/77 22/22/78 33/33/79 32/32/80
f 23/24/81 24/23/82 35/34/83 34/35/84
f 24/23/85 25/25/86 36/36/87 35/34/88
f 25/25/89 26/26/90 37/37/91 36/36/92
f 26/26/93 27/27/94 38/38/95 37/37/96
f 27/27/97 28/28/98 39/39/99 38/38/100
f 28/28/101 29/29/102 40/40/103 39/39/104
f 29/29/105 30/30/106 41/41/107 40/40/108
f 30/30/109 31/31/110 42/42/111 41/41/112
f 31/31/113 32/32/114 43/43/115 42/42/116
f 32/32/117 33/33/118 44/44/119 43/43/120
f 34/35/121 35/34/122 46/45/123 45/46/124
f 35/34/125 36/36/126 47/47/127 46/45/128
f 36/36/129 37/37/130 48/48/131 47/47/132
f 37/37/133 38/38/134 49/49/135 48/48/136
f 38/38/137 39/39/138 50/50/139 49/49/140
f 39/39/141 40/40/142 51/51/143 50/50/144
f 40/40/145 41/41/146 52/52/147 51/51/148
f 41/41/149 42/42/150 53/53/151 52/52/152
f 42/42/153 43/43/154 54/54/155 53/53/156
f 43/43/157 44/44/158 55/55/159 54/54/160
f 45/46/161 46/45/162 57/56/163 56/57/164
f 46/45/165 47/47/166 58/58/167 57/56/168
f 47/47/169 48/48/170 59/59/171 58/58/172
f 48/48/173 49/49/174 60/60/175 59/59/176
f 51/51/177 52/52/178 62/61/179 61/62/180
f 52/52/181 53/53/182 63/63/183 62/61/184
f 53/53/185 54/54/186 64/64/187 63/63/188
f 54/54/189 55/55/190 65/65/191 64/64/192
f 56/57/193 57/56/194 67/66/195 66/67/196
f 57/56/197 58/58/198 68/68/199 67/66/200
f 58/58/201 59/59/202 69/69/203 68/68/204
f 59/59/205 60/60/206 70/70/207 69/69/208
f 61/62/209 62/61/210 73/71/211 72/72/212
f 62/61/213 63/63/214 74/73/215 73/71/216
f 63/63/217 64/64/218 75/74/219 74/73/220
f 64/64/221 65/65/222 76/75/223 75/74/224
f 66/67/225 67/66/226 78/76/227 77/77/228
f 67/66/229 68/68/230 79/78/231 78/76/232
f 68/68/233 69/69/234 80/79/235 79/78/236
f 69/69/237 70/70/238 81/80/239 80/79/240
f 70/70/241 71/81/242 82/82/243 81/80/244
f 71/81/245 72/72/246 83/83/247 82/82/248
f 72/72/249 73/71/250 84/84/251 83/83/252
f 73/71/253 74/73/254 85/85/255 84/84/256
f 74/73/257 75/74/258 86/86/259 85/85/260
f 75/74/261 76/75/262 87/87/263 86/86/264
f 77/77/265 78/76/266 89/88/267 88/89/268
f 78/76/269 79/78/270 90/90/271 89/88/272
f 79/78/273 80/79/274 91/91/275 90/90/276
f 80/79/277 81/80/278 92/92/279 91/91/280
f 81/80/281 82/82/282 93/93/283 92/92/284
f 82/82/285 83/83/286 94/94/287 93/93/288
f 83/83/289 84/84/290 95/95/291 94/94/292
f 84/84/293 85/85/294 96/96/295 95/95/296
f 85/85/297 86/86/298 97/97/299 96/96/300
f 86/86/301 87/87/302 98/98/303 97/97/304
f 88/89/305 89/88/306 100/99/307 99/100/308
f 89/88/309 90/90/310 101/101/311 100/99/312
f 90/90/313 91/91/314 102/102/315 101/101/316
f 91/91/317 92/92/318 103/103/319 102/102/320
f 92/92/321 93/93/322 104/104/323 103/103/324
f 93/93/325 94/94/326 105/105/327 104/104/328
f 94/94/329 95/95/330 106/106/331 105/105/332
f 95/95/333 96/96/334 107/107/335 106/106/336
f 96/96/337 97/97/338 108/108/339 107/107/340
f 97/97/341 98/98/342 109/109/343 108/108/344
f 99/100/345 100/99/346 111/110/347 110/111/348
f 100/99/349 101/101/350 112/112/351 111/110/352
f 101/101/353 102/102/354 113/113/355 112/112/356
f 102/102/357 103/103/358 114/114/359 113/113/360
f 103/103/361 104/104/362 115/115/363 114/114/364
f 104/104/365 105/105/366 116/116/367 115/115/368
f 105/105/369 106/106/370 117/117/371 116/116/372
f 106/106/373 107/107/374 118/118/375 117/117/376
f 107/107/377 108/108/378 119/119/379 118/118/380
f 108/108/381 109/109/382 120/120/383 119/119/384
