# This file uses centimeters as units for non-parametric coordinates.

mtllib Mesa.mtl
g default
v -5.082880 4.102535 2.337128
v 3.886127 4.102535 2.337128
v -5.082880 4.396602 2.337128
v 3.886127 4.396602 2.337128
v -5.082880 4.396602 -8.055941
v 3.886127 4.396602 -8.055941
v -5.082880 4.102535 -8.055941
v 3.886127 4.102535 -8.055941
v 3.829000 -0.072267 -6.650407
v 4.246674 -0.058906 -6.650407
v 2.753326 3.813200 -6.650407
v 3.179890 3.815626 -6.650407
v 2.753326 3.813200 -7.149590
v 3.179890 3.815626 -7.149590
v 3.829000 -0.072267 -7.149590
v 4.246674 -0.058906 -7.149590
v -4.746674 -0.051275 -6.650407
v -4.264500 -0.051474 -6.650407
v -3.735501 3.851473 -6.650407
v -3.253326 3.833496 -6.650407
v -3.735501 3.851473 -7.149590
v -3.253326 3.833496 -7.149590
v -4.746674 -0.051275 -7.149590
v -4.264500 -0.051474 -7.149590
v -4.746674 -0.051275 1.449593
v -4.264500 -0.051474 1.449593
v -3.735501 3.851473 1.449593
v -3.253326 3.833496 1.449593
v -3.735501 3.851473 0.950410
v -3.253326 3.833496 0.950410
v -4.746674 -0.051275 0.950410
v -4.264500 -0.051474 0.950410
v 3.829000 -0.072267 1.449593
v 4.246674 -0.058906 1.449593
v 2.753326 3.813200 1.449593
v 3.179890 3.815626 1.449593
v 2.753326 3.813200 0.950410
v 3.179890 3.815626 0.950410
v 3.829000 -0.072267 0.950410
v 4.246674 -0.058906 0.950410
v -4.754223 3.806186 1.956289
v 3.557470 3.806186 1.956289
v -4.754223 4.100253 1.956289
v 3.557470 4.100253 1.956289
v -4.754223 4.100253 -7.675101
v 3.557470 4.100253 -7.675101
v -4.754223 3.806186 -7.675101
v 3.557470 3.806186 -7.675101
vt 1.000000 0.496408
vt 0.000000 0.494237
vt 0.000000 0.496408
vt 1.000000 0.494237
vt 0.000000 0.559093
vt 1.000000 0.559093
vt 1.000000 0.493465
vt 0.000000 0.493465
vt 0.998626 1.001370
vt 1.001370 0.001374
vt 1.000000 0.558322
vt 0.000000 0.558322
vt 0.000000 0.556150
vt 1.000000 0.556150
vt 0.000652 1.002178
vt -0.003715 0.002188
vt 0.996275 -0.002179
vt 1.000642 0.997812
vt 0.001374 -0.001370
vt -0.001370 0.998626
vt 0.000000 0.497074
vt 1.000000 0.497074
vt 1.000000 0.558988
vt 0.000000 0.558988
vt 0.375839 0.000000
vt 0.624161 0.000000
vt 0.624161 1.000000
vt 0.375839 1.000000
vt 0.000000 0.000000
vt 1.000000 0.000000
vt 1.000000 1.000000
vt 0.000000 1.000000
vt 0.375839 1.000000
vt 0.624161 1.000000
vt 0.624161 0.000000
vt 0.375839 0.000000
vt 0.000000 1.000000
vt 1.000000 1.000000
vt 1.000000 -0.000000
vt 0.000000 -0.000000
vt 0.375839 0.000000
vt 0.624161 0.000000
vt 0.624161 1.000000
vt 0.375839 1.000000
vt 0.624161 0.000000
vt 0.375839 0.000000
vt 0.375839 1.000000
vt 0.624161 1.000000
vt 0.375839 0.000000
vt 0.624161 0.000000
vt 0.624161 1.000000
vt 0.375839 1.000000
vt 0.000000 0.000000
vt 1.000000 0.000000
vt 1.000000 1.000000
vt 0.000000 1.000000
vt 0.375839 1.000000
vt 0.624161 1.000000
vt 0.624161 0.000000
vt 0.375839 0.000000
vt 0.000000 1.000000
vt 1.000000 1.000000
vt 1.000000 -0.000000
vt 0.000000 -0.000000
vt 0.375839 0.000000
vt 0.624161 0.000000
vt 0.624161 1.000000
vt 0.375839 1.000000
vt 0.624161 0.000000
vt 0.375839 0.000000
vt 0.375839 1.000000
vt 0.624161 1.000000
vt 0.375839 0.000000
vt 0.624161 0.000000
vt 0.624161 1.000000
vt 0.375839 1.000000
vt 0.000000 0.000000
vt 1.000000 0.000000
vt 1.000000 1.000000
vt 0.000000 1.000000
vt 0.375839 1.000000
vt 0.624161 1.000000
vt 0.624161 0.000000
vt 0.375839 0.000000
vt 0.000000 1.000000
vt 1.000000 1.000000
vt 1.000000 -0.000000
vt 0.000000 -0.000000
vt 0.375839 0.000000
vt 0.624161 0.000000
vt 0.624161 1.000000
vt 0.375839 1.000000
vt 0.624161 0.000000
vt 0.375839 0.000000
vt 0.375839 1.000000
vt 0.624161 1.000000
vt 0.375839 0.000000
vt 0.624161 0.000000
vt 0.624161 1.000000
vt 0.375839 1.000000
vt 0.000000 0.000000
vt 1.000000 0.000000
vt 1.000000 1.000000
vt 0.000000 1.000000
vt 0.375839 1.000000
vt 0.624161 1.000000
vt 0.624161 0.000000
vt 0.375839 0.000000
vt 0.000000 1.000000
vt 1.000000 1.000000
vt 1.000000 -0.000000
vt 0.000000 -0.000000
vt 0.375839 0.000000
vt 0.624161 0.000000
vt 0.624161 1.000000
vt 0.375839 1.000000
vt 0.624161 0.000000
vt 0.375839 0.000000
vt 0.375839 1.000000
vt 0.624161 1.000000
vt 0.000000 0.497074
vt 1.000000 0.497074
vt 1.000000 0.558988
vt 0.000000 0.558988
vt 0.000652 1.002178
vt -0.003715 0.002188
vt 0.996275 -0.002179
vt 1.000642 0.997812
vt 0.000000 0.559093
vt 1.000000 0.559093
vt 1.000000 0.493465
vt 0.000000 0.493465
vt 0.998626 1.001370
vt 1.001370 0.001374
vt 0.001374 -0.001370
vt -0.001370 0.998626
vt 0.000000 0.494237
vt 1.000000 0.494237
vt 1.000000 0.558322
vt 0.000000 0.558322
vt 1.000000 0.496408
vt 0.000000 0.496408
vt 0.000000 0.556150
vt 1.000000 0.556150
vn 0.000000 0.000000 1.000000
vn 0.000000 0.000000 1.000000
vn 0.000000 0.000000 1.000000
vn 0.000000 0.000000 1.000000
vn 0.000000 1.000000 0.000000
vn 0.000000 1.000000 0.000000
vn 0.000000 1.000000 0.000000
vn 0.000000 1.000000 0.000000
vn 0.000000 0.000000 -1.000000
vn 0.000000 0.000000 -1.000000
vn 0.000000 0.000000 -1.000000
vn 0.000000 0.000000 -1.000000
vn 0.000000 -1.000000 0.000000
vn 0.000000 -1.000000 0.000000
vn 0.000000 -1.000000 0.000000
vn 0.000000 -1.000000 0.000000
vn 1.000000 0.000000 0.000000
vn 1.000000 0.000000 0.000000
vn 1.000000 0.000000 0.000000
vn 1.000000 0.000000 0.000000
vn -1.000000 0.000000 0.000000
vn -1.000000 0.000000 0.000000
vn -1.000000 0.000000 0.000000
vn -1.000000 0.000000 0.000000
vn -0.000002 0.000000 1.000000
vn 0.000002 0.000000 1.000000
vn -0.000001 0.000000 1.000000
vn 0.000002 0.000000 1.000000
vn -0.005688 0.999984 0.000000
vn -0.005688 0.999984 0.000000
vn -0.005688 0.999984 0.000000
vn -0.005688 0.999984 0.000000
vn -0.000002 0.000000 -1.000000
vn -0.000002 0.000000 -1.000000
vn 0.000002 0.000000 -1.000000
vn 0.000002 0.000000 -1.000000
vn 0.031972 -0.999489 0.000000
vn 0.031972 -0.999489 0.000000
vn 0.031972 -0.999489 0.000000
vn 0.031972 -0.999489 0.000000
vn 0.964124 0.265454 0.000000
vn 0.964124 0.265454 0.000000
vn 0.964123 0.265454 0.000000
vn 0.964124 0.265454 0.000000
vn -0.963749 -0.266809 0.000000
vn -0.963749 -0.266809 0.000000
vn -0.963749 -0.266809 0.000000
vn -0.963749 -0.266809 0.000000
vn -0.000002 0.000000 1.000000
vn -0.000002 0.000000 1.000000
vn 0.000001 0.000000 1.000000
vn 0.000002 0.000000 1.000000
vn 0.037258 0.999306 0.000000
vn 0.037258 0.999306 0.000000
vn 0.037258 0.999306 0.000000
vn 0.037258 0.999306 0.000000
vn 0.000001 0.000000 -1.000000
vn 0.000000 0.000000 -1.000000
vn 0.000001 0.000000 -1.000000
vn 0.000000 0.000000 -1.000000
vn -0.000411 -1.000000 0.000000
vn -0.000411 -1.000000 0.000000
vn -0.000411 -1.000000 0.000000
vn -0.000411 -1.000000 0.000000
vn 0.967757 -0.251887 0.000000
vn 0.967757 -0.251887 0.000000
vn 0.967757 -0.251886 0.000000
vn 0.967757 -0.251886 0.000000
vn -0.968036 0.250811 0.000000
vn -0.968036 0.250811 0.000000
vn -0.968036 0.250811 0.000000
vn -0.968036 0.250812 0.000000
vn 0.000000 0.000000 1.000000
vn -0.000000 0.000000 1.000000
vn -0.000000 0.000000 1.000000
vn -0.000000 0.000000 1.000000
vn 0.037258 0.999306 0.000000
vn 0.037258 0.999306 0.000000
vn 0.037258 0.999306 0.000000
vn 0.037258 0.999306 0.000000
vn -0.000000 0.000000 -1.000000
vn -0.000000 0.000000 -1.000000
vn -0.000000 0.000000 -1.000000
vn 0.000000 0.000000 -1.000000
vn -0.000411 -1.000000 0.000000
vn -0.000411 -1.000000 0.000000
vn -0.000411 -1.000000 0.000000
vn -0.000411 -1.000000 0.000000
vn 0.967757 -0.251886 0.000000
vn 0.967757 -0.251886 0.000000
vn 0.967757 -0.251886 0.000000
vn 0.967757 -0.251886 0.000000
vn -0.968036 0.250811 0.000000
vn -0.968036 0.250811 0.000000
vn -0.968036 0.250811 0.000000
vn -0.968036 0.250811 0.000000
vn 0.000001 0.000000 1.000000
vn -0.000001 0.000000 1.000000
vn 0.000001 0.000000 1.000000
vn -0.000001 0.000000 1.000000
vn -0.005688 0.999984 0.000000
vn -0.005688 0.999984 0.000000
vn -0.005688 0.999984 0.000000
vn -0.005688 0.999984 0.000000
vn 0.000000 0.000000 -1.000000
vn 0.000000 0.000000 -1.000000
vn -0.000000 0.000000 -1.000000
vn -0.000000 0.000000 -1.000000
vn 0.031972 -0.999489 0.000000
vn 0.031972 -0.999489 0.000000
vn 0.031972 -0.999489 0.000000
vn 0.031972 -0.999489 0.000000
vn 0.964124 0.265454 0.000000
vn 0.964123 0.265454 0.000000
vn 0.964124 0.265454 0.000000
vn 0.964124 0.265454 0.000000
vn -0.963749 -0.266809 0.000000
vn -0.963749 -0.266809 0.000000
vn -0.963749 -0.266810 0.000000
vn -0.963749 -0.266810 0.000000
vn 0.000000 0.000000 1.000000
vn 0.000000 0.000000 1.000000
vn 0.000000 0.000000 1.000000
vn 0.000000 0.000000 1.000000
vn 0.000000 1.000000 0.000000
vn 0.000000 1.000000 0.000000
vn 0.000000 1.000000 0.000000
vn 0.000000 1.000000 0.000000
vn 0.000000 0.000000 -1.000000
vn 0.000000 0.000000 -1.000000
vn 0.000000 0.000000 -1.000000
vn 0.000000 0.000000 -1.000000
vn 0.000000 -1.000000 0.000000
vn 0.000000 -1.000000 0.000000
vn 0.000000 -1.000000 0.000000
vn 0.000000 -1.000000 0.000000
vn 1.000000 0.000000 0.000000
vn 1.000000 0.000000 0.000000
vn 1.000000 0.000000 0.000000
vn 1.000000 0.000000 0.000000
vn -1.000000 0.000000 0.000000
vn -1.000000 0.000000 0.000000
vn -1.000000 0.000000 0.000000
vn -1.000000 0.000000 0.000000
s 1
g pCube15
usemtl phong2SG
f 1/21/1 2/22/2 3/24/3
f 3/24/3 2/22/2 4/23/4
s 2
f 3/15/5 4/16/6 5/18/7
f 5/18/7 4/16/6 6/17/8
s 3
f 5/5/9 6/6/10 7/8/11
f 7/8/11 6/6/10 8/7/12
s 4
f 7/9/13 8/10/14 1/20/15
f 1/20/15 8/10/14 2/19/16
s 5
f 2/2/17 8/4/18 4/12/19
f 4/12/19 8/4/18 6/11/20
s 6
f 7/1/21 1/3/22 5/14/23
f 5/14/23 1/3/22 3/13/24
s 7
f 10/26/25 12/27/26 9/25/27
f 9/25/27 12/27/26 11/28/28
s 8
f 11/29/29 12/30/30 13/32/31
f 13/32/31 12/30/30 14/31/32
s 9
f 13/33/33 14/34/34 15/36/35
f 15/36/35 14/34/34 16/35/36
s 10
f 15/37/37 16/38/38 9/40/39
f 9/40/39 16/38/38 10/39/40
s 11
f 10/41/41 16/42/42 12/44/43
f 12/44/43 16/42/42 14/43/44
s 12
f 15/45/45 9/46/46 13/48/47
f 13/48/47 9/46/46 11/47/48
s 13
f 17/49/49 18/50/50 19/52/51
f 19/52/51 18/50/50 20/51/52
s 14
f 19/53/53 20/54/54 21/56/55
f 21/56/55 20/54/54 22/55/56
s 15
f 22/58/57 24/59/58 21/57/59
f 21/57/59 24/59/58 23/60/60
s 16
f 23/61/61 24/62/62 17/64/63
f 17/64/63 24/62/62 18/63/64
s 17
f 18/65/65 24/66/66 20/68/67
f 20/68/67 24/66/66 22/67/68
s 18
f 23/69/69 17/70/70 21/72/71
f 21/72/71 17/70/70 19/71/72
s 19
f 25/73/73 26/74/74 27/76/75
f 27/76/75 26/74/74 28/75/76
s 20
f 27/77/77 28/78/78 29/80/79
f 29/80/79 28/78/78 30/79/80
s 21
f 30/82/81 32/83/82 29/81/83
f 29/81/83 32/83/82 31/84/84
s 22
f 31/85/85 32/86/86 25/88/87
f 25/88/87 32/86/86 26/87/88
s 23
f 26/89/89 32/90/90 28/92/91
f 28/92/91 32/90/90 30/91/92
s 24
f 31/93/93 25/94/94 29/96/95
f 29/96/95 25/94/94 27/95/96
s 25
f 34/98/97 36/99/98 33/97/99
f 33/97/99 36/99/98 35/100/100
s 26
f 35/101/101 36/102/102 37/104/103
f 37/104/103 36/102/102 38/103/104
s 27
f 37/105/105 38/106/106 39/108/107
f 39/108/107 38/106/106 40/107/108
s 28
f 39/109/109 40/110/110 33/112/111
f 33/112/111 40/110/110 34/111/112
s 29
f 34/113/113 40/114/114 36/116/115
f 36/116/115 40/114/114 38/115/116
s 30
f 39/117/117 33/118/118 37/120/119
f 37/120/119 33/118/118 35/119/120
s 31
f 41/121/121 42/122/122 43/124/123
f 43/124/123 42/122/122 44/123/124
s 32
f 43/125/125 44/126/126 45/128/127
f 45/128/127 44/126/126 46/127/128
s 33
f 45/129/129 46/130/130 47/132/131
f 47/132/131 46/130/130 48/131/132
s 34
f 47/133/133 48/134/134 41/136/135
f 41/136/135 48/134/134 42/135/136
s 35
f 42/137/137 48/138/138 44/140/139
f 44/140/139 48/138/138 46/139/140
s 36
f 47/141/141 41/142/142 45/144/143
f 45/144/143 41/142/142 43/143/144
